<svg xmlns="http://www.w3.org/2000/svg" width="18.438" height="18.438" viewBox="0 0 18.438 18.438">
  <path id="Icon_awesome-hashtag" data-name="Icon awesome-hashtag" d="M18.137,8.428l.294-1.646a.494.494,0,0,0-.486-.581H14.865l.6-3.37a.494.494,0,0,0-.486-.581H13.309a.494.494,0,0,0-.486.407L12.19,6.2H8.13l.6-3.37a.494.494,0,0,0-.486-.581H6.574a.494.494,0,0,0-.486.407L5.454,6.2H2.2a.494.494,0,0,0-.486.407L1.419,8.254a.494.494,0,0,0,.486.581H4.984L4.043,14.1H.788A.494.494,0,0,0,.3,14.51L.008,16.157a.494.494,0,0,0,.486.581H3.573l-.6,3.37a.494.494,0,0,0,.486.581H5.13a.494.494,0,0,0,.486-.407l.633-3.544h4.06l-.6,3.37a.494.494,0,0,0,.486.581h1.672a.494.494,0,0,0,.486-.407l.633-3.544h3.255a.494.494,0,0,0,.486-.407l.294-1.646a.494.494,0,0,0-.486-.581H13.454L14.4,8.835H17.65a.494.494,0,0,0,.486-.407ZM10.779,14.1H6.719L7.66,8.835h4.06Z" transform="translate(0 -2.25)" fill="#eee"/>
</svg>
