<svg xmlns="http://www.w3.org/2000/svg" width="223.658" height="209.595" viewBox="0 0 223.658 209.595">
  <g id="diploma" transform="translate(0 -16.096)">
    <path id="Caminho_183" data-name="Caminho 183" d="M227.319,408.373l-22.247,15.2v-56.1h22.247Z" transform="translate(-115.49 -197.884)" fill="#4b9fd8"/>
    <path id="Caminho_184" data-name="Caminho 184" d="M256,408.373l22.247,15.2v-56.1H256Z" transform="translate(-144.171 -197.884)" fill="#3789c9"/>
    <path id="Caminho_185" data-name="Caminho 185" d="M205.136,401.524l11.476-1.768,10.729,8.618.021-.021.014.014,10.722-8.611,11.49,1.775V367.472H205.136Z" transform="translate(-115.526 -197.884)" fill="#010101" opacity="0.05"/>
    <path id="Caminho_186" data-name="Caminho 186" d="M216.668,16.1H6.989A6.992,6.992,0,0,0,0,23.085V158.419a6.992,6.992,0,0,0,6.989,6.989H216.668a6.992,6.992,0,0,0,6.989-6.989V23.085A6.987,6.987,0,0,0,216.668,16.1Z" fill="#ebceb8"/>
    <path id="Caminho_187" data-name="Caminho 187" d="M40.07,165.357c-11.546-6.815,2.74-14.971,2.74-28.384s-3.634-13.412-3.634-26.825c0-13.433,3.634-13.433,3.634-26.867S28.51,61.7,40.07,54.856C59.6,43.3,63.687,58.239,86.381,58.239,109.1,58.239,109.1,54.6,131.8,54.6c22.729,0,22.729,3.634,45.458,3.634s26.8-14.929,46.381-3.383c11.546,6.815-2.74,14.971-2.74,28.384s3.634,13.412,3.634,26.825c0,13.433-3.634,13.433-3.634,26.867s14.3,21.59,2.74,28.432c-19.528,11.56-23.617-3.383-46.311-3.383-22.715,0-22.715,3.634-45.423,3.634-22.729,0-23.421-7.66-45.78-3.606C62.429,166.3,59.647,176.9,40.07,165.357Z" transform="translate(-20.025 -19.358)" fill="#fdf2e5"/>
    <g id="Grupo_107" data-name="Grupo 107" transform="translate(33.982 49.016)">
      <path id="Caminho_188" data-name="Caminho 188" d="M376.343,275.437H341.159a3.495,3.495,0,1,1,0-6.989h35.184a3.495,3.495,0,1,1,0,6.989Z" transform="translate(-224.144 -191.132)" fill="#84ca9b"/>
      <path id="Caminho_189" data-name="Caminho 189" d="M116.464,275.437H81.287a3.495,3.495,0,1,1,0-6.989h35.177a3.495,3.495,0,1,1,0,6.989Z" transform="translate(-77.792 -191.132)" fill="#84ca9b"/>
      <path id="Caminho_190" data-name="Caminho 190" d="M229.991,216.445H81.287a3.495,3.495,0,0,1,0-6.989h148.7a3.495,3.495,0,0,1,0,6.989Z" transform="translate(-77.792 -157.91)" fill="#84ca9b"/>
      <path id="Caminho_191" data-name="Caminho 191" d="M229.991,157.437H81.287a3.495,3.495,0,0,1,0-6.989h148.7a3.495,3.495,0,1,1,0,6.989Z" transform="translate(-77.792 -124.678)" fill="#84ca9b"/>
      <path id="Caminho_192" data-name="Caminho 192" d="M238.626,98.445H149.639a3.495,3.495,0,0,1,0-6.989h88.988a3.495,3.495,0,1,1,0,6.989Z" transform="translate(-116.286 -91.456)" fill="#84ca9b"/>
    </g>
    <path id="Caminho_193" data-name="Caminho 193" d="M243.211,292.621l-7.828,9.75,1.908,12.364-11.665,4.522L221.1,330.923l-12.357-1.908-9.757,7.828-9.757-7.828-12.357,1.9-4.522-11.658-11.665-4.522,1.908-12.364-7.828-9.75,7.828-9.757L160.688,270.5l11.665-4.515,4.522-11.665,12.357,1.9,9.757-7.821,9.757,7.821,12.357-1.9,4.522,11.665,11.665,4.515-1.908,12.364Z" transform="translate(-87.16 -130.826)" fill="#ed6362"/>
    <path id="Caminho_194" data-name="Caminho 194" d="M205.727,298.3H177.413a3.548,3.548,0,0,1-3.523-3.523l.042-.245V294.5a3.675,3.675,0,0,1,3.683-3.725h20.653a4.383,4.383,0,0,0,4.459-3.97,4.227,4.227,0,0,0-4.215-4.417H176.833a3.569,3.569,0,0,1-3.523-3.725v-.084a3.594,3.594,0,0,1,3.523-3.725H194.95a4.311,4.311,0,0,0,4.382-3.928,4.18,4.18,0,0,0-4.173-4.424H176.1l-3.746,9.673-11.665,4.522,1.908,12.364-7.828,9.757,7.828,9.757-1.908,12.364,11.665,4.522,3.746,9.673h21.849a4.322,4.322,0,0,0,4.424-3.928,4.2,4.2,0,0,0-4.173-4.424H179.957a4.2,4.2,0,0,1-4.215-4.417,4.382,4.382,0,0,1,4.424-3.97h17.424a4.146,4.146,0,0,0,4.054-4.173,4.188,4.188,0,0,0-4.173-4.173H176.036a3.5,3.5,0,0,1-3.523-3.523v-.329a3.325,3.325,0,0,1,3.313-3.523h29.663a4.38,4.38,0,0,0,4.459-3.928A4.247,4.247,0,0,0,205.727,298.3Z" transform="translate(-87.16 -141.017)" fill="#ef6f6f"/>
    <path id="Caminho_195" data-name="Caminho 195" d="M219.9,341.534a28,28,0,1,1,28-28A28.03,28.03,0,0,1,219.9,341.534Z" transform="translate(-108.074 -151.74)" fill="#ffcc5b"/>
    <path id="Caminho_196" data-name="Caminho 196" d="M237.546,288.553a3.234,3.234,0,0,0,3.215,3.4h14.048a3.245,3.245,0,0,1,3.25,3.4,3.379,3.379,0,0,1-3.4,3.061H241.236a3.216,3.216,0,0,0,.091,6.43h16.509a2.688,2.688,0,0,1,2.712,2.712v.252A2.555,2.555,0,0,1,258,310.528H235.148a3.378,3.378,0,0,0-3.439,3.026,3.258,3.258,0,0,0,3.25,3.4h21.807a2.733,2.733,0,0,1,2.712,2.712l-.035.189v.028a2.83,2.83,0,0,1-2.838,2.873H240.691a3.381,3.381,0,0,0-3.439,3.061,3.262,3.262,0,0,0,3.25,3.4h16.7a2.748,2.748,0,0,1,2.712,2.873v.07a2.763,2.763,0,0,1-2.712,2.866H243.242a3.322,3.322,0,0,0-3.376,3.026,3.21,3.21,0,0,0,3.215,3.4h.356a27.982,27.982,0,0,0-1.132-55.942c-.643,0-1.272.056-1.9.1A3.251,3.251,0,0,0,237.546,288.553Z" transform="translate(-130.49 -151.731)" fill="#fdbc4b"/>
    <path id="Caminho_197" data-name="Caminho 197" d="M230.874,346.11h0a3.7,3.7,0,0,1-2.614-1.083l-6.773-6.773a3.692,3.692,0,1,1,5.221-5.221l4.159,4.159L245.2,322.864a3.692,3.692,0,1,1,5.221,5.221l-16.942,16.942A3.66,3.66,0,0,1,230.874,346.11Z" transform="translate(-124.127 -172.154)" fill="#fff"/>
  </g>
</svg>
