<svg xmlns="http://www.w3.org/2000/svg" width="101.383" height="16.349" viewBox="0 0 101.383 16.349">
  <g id="Grupo_138" data-name="Grupo 138" transform="translate(-81.962 -447.151)">
    <path id="Icon_awesome-star" data-name="Icon awesome-star" d="M8.674.539,6.7,4.548l-4.425.645a.97.97,0,0,0-.536,1.654l3.2,3.119-.757,4.407a.969.969,0,0,0,1.405,1.021l3.958-2.081L13.5,15.394a.969.969,0,0,0,1.405-1.021l-.757-4.407,3.2-3.119a.97.97,0,0,0-.536-1.654L12.39,4.548,10.412.539A.97.97,0,0,0,8.674.539Z" transform="translate(80.521 447.152)" fill="#eee"/>
    <path id="Icon_awesome-star-2" data-name="Icon awesome-star" d="M8.674.539,6.7,4.548l-4.425.645a.97.97,0,0,0-.536,1.654l3.2,3.119-.757,4.407a.969.969,0,0,0,1.405,1.021l3.958-2.081L13.5,15.394a.969.969,0,0,0,1.405-1.021l-.757-4.407,3.2-3.119a.97.97,0,0,0-.536-1.654L12.39,4.548,10.412.539A.97.97,0,0,0,8.674.539Z" transform="translate(101.586 447.152)" fill="#eee"/>
    <path id="Icon_awesome-star-3" data-name="Icon awesome-star" d="M8.674.539,6.7,4.548l-4.425.645a.97.97,0,0,0-.536,1.654l3.2,3.119-.757,4.407a.969.969,0,0,0,1.405,1.021l3.958-2.081L13.5,15.394a.969.969,0,0,0,1.405-1.021l-.757-4.407,3.2-3.119a.97.97,0,0,0-.536-1.654L12.39,4.548,10.412.539A.97.97,0,0,0,8.674.539Z" transform="translate(122.651 447.152)" fill="#eee"/>
    <path id="Icon_awesome-star-4" data-name="Icon awesome-star" d="M8.674.539,6.7,4.548l-4.425.645a.97.97,0,0,0-.536,1.654l3.2,3.119-.757,4.407a.969.969,0,0,0,1.405,1.021l3.958-2.081L13.5,15.394a.969.969,0,0,0,1.405-1.021l-.757-4.407,3.2-3.119a.97.97,0,0,0-.536-1.654L12.39,4.548,10.412.539A.97.97,0,0,0,8.674.539Z" transform="translate(143.717 447.152)" fill="#eee"/>
    <path id="Icon_awesome-star-half-alt" data-name="Icon awesome-star-half-alt" d="M16.239,5.477,11.565,4.8,9.476.569a1.026,1.026,0,0,0-1.836,0L5.55,4.8l-4.674.68A1.022,1.022,0,0,0,.31,7.219l3.381,3.289-.8,4.645a1.024,1.024,0,0,0,1.009,1.2,1.009,1.009,0,0,0,.475-.12l4.181-2.193,4.181,2.194a1.022,1.022,0,0,0,1.484-1.076l-.8-4.646L16.8,7.22a1.022,1.022,0,0,0-.566-1.743ZM12.351,9.41l-.579.563.137.794.623,3.623L9.271,12.679,8.557,12.3V2.176l1.629,3.3.357.723.8.116,3.648.531L12.351,9.41Z" transform="translate(166.23 447.151)" fill="#eee"/>
  </g>
</svg>
