<svg xmlns="http://www.w3.org/2000/svg" width="16.78" height="17.651" viewBox="0 0 16.78 17.651">
  <path id="Icon_map-school" data-name="Icon map-school" d="M11.654,3.274V15.311H2.9V3.274h8.755m1.459-1.459H1.44V17.135H13.113V1.814ZM3.994,4.733H10.56V6.192H3.994Zm0,2.554H10.56V8.745H3.994Zm0,2.554H10.56V11.3H3.994Zm0,2.554H10.56v1.459H3.994ZM15.3,4.733H18.22V14.947H15.3ZM16.763.72A1.454,1.454,0,0,0,15.3,2.156V3.638H18.22V2.156A1.452,1.452,0,0,0,16.763.72ZM15.279,16.041l1.474,2.33,1.467-2.33Z" transform="translate(-1.44 -0.72)"/>
</svg>
