<svg xmlns="http://www.w3.org/2000/svg" width="268.011" height="290.004" viewBox="0 0 268.011 290.004">
  <g id="ideia-de-negocio" transform="translate(-19.13)">
    <g id="Grupo_116" data-name="Grupo 116" transform="translate(19.13 43.067)">
      <path id="Caminho_219" data-name="Caminho 219" d="M227.775,212.647a45.018,45.018,0,0,0-9.6-27.85,20.438,20.438,0,0,1-4.253-12.615v-7.749a89.635,89.635,0,0,0-179.269,0l-.06,6.2a19.912,19.912,0,0,1-4.825,12.661,45.476,45.476,0,0,0,9.649,67.091,10.566,10.566,0,0,1,4.35,11c-1.885,9.183.751,20.011,10.448,30.143a11.182,11.182,0,0,0,8.086,3.407H184.6a11.2,11.2,0,0,0,8.1-3.413c9.693-10.131,12.327-20.956,10.443-30.137a10.566,10.566,0,0,1,4.35-11,45.217,45.217,0,0,0,20.285-37.737Z" transform="translate(-19.13 -74.92)" fill="#7974e3"/>
      <path id="Caminho_220" data-name="Caminho 220" d="M289.575,184.8a20.438,20.438,0,0,1-4.253-12.615v-7.749A89.574,89.574,0,0,0,195.688,74.92c-2.909,0-5.785.144-8.623.414a89.567,89.567,0,0,1,81.012,89.1v7.749A20.438,20.438,0,0,0,272.33,184.8a45.222,45.222,0,0,1-10.686,65.585,10.566,10.566,0,0,0-4.35,11c1.885,9.181-.75,20.007-10.443,30.137a11.2,11.2,0,0,1-8.1,3.413H256a11.2,11.2,0,0,0,8.1-3.413c9.693-10.131,12.327-20.956,10.443-30.137a10.566,10.566,0,0,1,4.35-11A45.223,45.223,0,0,0,289.575,184.8Z" transform="translate(-90.53 -74.92)" fill="#6b64e8"/>
      <g id="Grupo_114" data-name="Grupo 114" transform="translate(23.391 165.32)">
        <g id="Grupo_113" data-name="Grupo 113">
          <path id="Caminho_221" data-name="Caminho 221" d="M59.821,444.133a81.728,81.728,0,0,1,163.456,0Z" transform="translate(-59.821 -362.516)" fill="#fd6dc3"/>
        </g>
      </g>
      <path id="Caminho_222" data-name="Caminho 222" d="M195.62,362.516a82.794,82.794,0,0,0-8.623.452A81.668,81.668,0,0,1,260.1,444.133h17.245a81.673,81.673,0,0,0-81.728-81.617Z" transform="translate(-90.501 -197.196)" fill="#f759b8"/>
      <path id="Caminho_223" data-name="Caminho 223" d="M178.382,416.082l31.928-43.267H146.455Z" transform="translate(-73.264 -201.575)" fill="#ffd2a8"/>
      <path id="Caminho_224" data-name="Caminho 224" d="M146.456,372.815l7.838,57.517,24.09-14.25h0l24.09,14.25,7.838-57.517-31.76,41.719Z" transform="translate(-73.265 -201.575)" fill="#ffadde"/>
      <path id="Caminho_225" data-name="Caminho 225" d="M122.221,183.983c13.8,58.016,71.419,54.654,98.457,49.642A71.473,71.473,0,0,1,77.84,230.05C114.412,220.572,122.221,183.983,122.221,183.983Z" transform="translate(-43.84 -121.29)" fill="#ffe2c7"/>
      <g id="Grupo_120" data-name="Grupo 120" transform="translate(77 93.542)">
        <path id="Caminho_97" data-name="Caminho 97" d="M394.88,213.779c4.026,0,7.29,3.732,7.29,8.336v14.55c0,4.6-3.264,8.336-7.29,8.336s-7.29-3.732-7.29-8.336v-14.55C387.59,217.511,390.853,213.779,394.88,213.779Z" transform="translate(-345.572 -213.779)" fill="#334353"/>
        <path id="Caminho_98" data-name="Caminho 98" d="M343.659,213.779c4.026,0,7.29,3.732,7.29,8.336v14.55c0,4.6-3.264,8.336-7.29,8.336s-7.29-3.732-7.29-8.336v-14.55C336.369,217.511,339.633,213.779,343.659,213.779Z" transform="translate(-336.369 -213.779)" fill="#334353"/>
      </g>
      <g id="Grupo_115" data-name="Grupo 115" transform="translate(83.728 142.375)">
        <path id="Caminho_226" data-name="Caminho 226" d="M186.176,338.274a28.4,28.4,0,0,1-20.125-8.311,4.311,4.311,0,0,1,6.093-6.1,19.886,19.886,0,0,0,28.063,0,4.311,4.311,0,0,1,6.093,6.1,28.389,28.389,0,0,1-20.124,8.311Z" transform="translate(-164.787 -322.601)" fill="#ffc48c"/>
      </g>
    </g>
    <g id="Grupo_119" data-name="Grupo 119" transform="translate(140.052)">
      <g id="Grupo_117" data-name="Grupo 117" transform="translate(30.338 28.99)">
        <path id="Caminho_227" data-name="Caminho 227" d="M367.68,93.232a42.707,42.707,0,1,0-62.866,37.735v7.191a5.311,5.311,0,0,0,5.305,5.317h29.709a5.311,5.311,0,0,0,5.305-5.317v-7.191A42.8,42.8,0,0,0,367.68,93.232Z" transform="translate(-282.268 -50.433)" fill="#fdf486"/>
        <path id="Caminho_228" data-name="Caminho 228" d="M349.164,50.445a42.167,42.167,0,0,0-7.573.878,42.829,42.829,0,0,1,11.519,79.644v7.191a5.311,5.311,0,0,1-5.305,5.317H365.05a5.311,5.311,0,0,0,5.305-5.317v-7.191a42.817,42.817,0,0,0-21.191-80.522Z" transform="translate(-307.49 -50.433)" fill="#fdf056"/>
        <path id="Caminho_229" data-name="Caminho 229" d="M351.147,233.559H340.265a9.546,9.546,0,0,1-9.546-9.546V212.292h29.974v11.721A9.545,9.545,0,0,1,351.147,233.559Z" transform="translate(-302.867 -119.25)" fill="#cfcfff"/>
        <path id="Caminho_230" data-name="Caminho 230" d="M356.03,212.293v11.721a9.539,9.539,0,0,1-9.239,9.531c.1,0,.2.016.308.016H357.98a9.546,9.546,0,0,0,9.546-9.546V212.293Z" transform="translate(-309.701 -119.25)" fill="#c1bfff"/>
      </g>
      <g id="Grupo_118" data-name="Grupo 118">
        <path id="Caminho_232" data-name="Caminho 232" d="M353.372,0a4.311,4.311,0,0,0-4.311,4.311V15.485a4.311,4.311,0,0,0,8.623,0V4.311A4.311,4.311,0,0,0,353.372,0Z" transform="translate(-280.327)" fill="#fdf05b"/>
        <path id="Caminho_233" data-name="Caminho 233" d="M273.328,51.106a4.311,4.311,0,1,0,6.093-6.1l-7.912-7.9a4.311,4.311,0,1,0-6.093,6.1Z" transform="translate(-244.227 -15.24)" fill="#fdf05b"/>
        <path id="Caminho_234" data-name="Caminho 234" d="M244.991,121.147H233.8a4.311,4.311,0,0,0,0,8.623h11.19a4.311,4.311,0,1,0,0-8.623Z" transform="translate(-229.49 -51.508)" fill="#fdf05b"/>
        <path id="Caminho_235" data-name="Caminho 235" d="M274.56,193.457l-7.912,7.9a4.311,4.311,0,0,0,6.093,6.1l7.912-7.9a4.311,4.311,0,1,0-6.093-6.1Z" transform="translate(-244.75 -81.715)" fill="#fdf05b"/>
        <path id="Caminho_236" data-name="Caminho 236" d="M429.305,192.227a4.311,4.311,0,1,0-6.093,6.1l7.912,7.9a4.311,4.311,0,0,0,6.093-6.1Z" transform="translate(-311.316 -81.192)" fill="#fdf05b"/>
        <path id="Caminho_237" data-name="Caminho 237" d="M466.406,119.408H455.217a4.311,4.311,0,0,0,0,8.623h11.189a4.311,4.311,0,1,0,0-8.623Z" transform="translate(-323.628 -50.768)" fill="#fdf05b"/>
        <path id="Caminho_238" data-name="Caminho 238" d="M425.028,51.138a4.3,4.3,0,0,0,3.047-1.261l7.912-7.9a4.311,4.311,0,1,0-6.093-6.1l-7.912,7.9a4.311,4.311,0,0,0,3.046,7.361Z" transform="translate(-310.793 -14.717)" fill="#fdf05b"/>
      </g>
    </g>
  </g>
</svg>
