<svg xmlns="http://www.w3.org/2000/svg" xmlns:xlink="http://www.w3.org/1999/xlink" width="438.169" height="438.169" viewBox="0 0 438.169 438.169">
  <defs>
    <filter id="Caminho_106" x="0" y="0" width="438.169" height="438.169" filterUnits="userSpaceOnUse">
      <feOffset dy="3" input="SourceAlpha"/>
      <feGaussianBlur stdDeviation="3" result="blur"/>
      <feFlood flood-opacity="0.161"/>
      <feComposite operator="in" in2="blur"/>
      <feComposite in="SourceGraphic"/>
    </filter>
  </defs>
  <g id="graphic-designer" transform="translate(9 6)">
    <g id="Grupo_35" data-name="Grupo 35">
      <g transform="matrix(1, 0, 0, 1, -9, -6)" filter="url(#Caminho_106)">
        <path id="Caminho_106-2" data-name="Caminho 106" d="M210.084,0C326.111,0,420.169,94.058,420.169,210.084S326.111,420.169,210.084,420.169,0,326.111,0,210.084,94.058,0,210.084,0Z" transform="translate(9 6)" fill="#008891"/>
      </g>
      <circle id="Elipse_4" data-name="Elipse 4" cx="166.79" cy="166.79" r="166.79" transform="translate(43.215 43.215)" fill="#2aafb8"/>
      <path id="Caminho_1" data-name="Caminho 1" d="M401.887,373.08a210.075,210.075,0,0,1-373.6,0Z" transform="translate(-5.083 -67.029)" fill="#eea47d"/>
      <g id="Grupo_34" data-name="Grupo 34" transform="translate(61.812 306.051)">
        <path id="Caminho_2" data-name="Caminho 2" d="M376.9,373.08v87.464c-5.47,3.042-11.08,5.861-16.8,8.408V373.08Z" transform="translate(-126.51 -373.08)" fill="#f5b890"/>
        <path id="Caminho_3" data-name="Caminho 3" d="M196.851,373.08v83.308a8.4,8.4,0,1,1-16.809,0V373.08Z" transform="translate(-94.16 -373.08)" fill="#f5b890"/>
        <path id="Caminho_4" data-name="Caminho 4" d="M325.025,373.08v50.063a8.4,8.4,0,1,1-16.809,0V373.08Z" transform="translate(-117.188 -373.08)" fill="#f5b890"/>
        <path id="Caminho_5" data-name="Caminho 5" d="M461.414,373.08v16a8.4,8.4,0,1,1-16.809,0v-16Z" transform="translate(-141.692 -373.08)" fill="#f5b890"/>
        <path id="Caminho_6" data-name="Caminho 6" d="M302.029,471.34v27.883q-8.294,1.637-16.809,2.6V471.34a8.4,8.4,0,0,1,16.809,0Z" transform="translate(-113.056 -389.225)" fill="#f5b890"/>
        <path id="Caminho_7" data-name="Caminho 7" d="M423.529,399.829v36.63A204.713,204.713,0,0,1,406.72,450.1V399.829C407.153,388.692,423.1,388.7,423.529,399.829Z" transform="translate(-134.886 -376.385)" fill="#f5b890"/>
        <path id="Caminho_8" data-name="Caminho 8" d="M244.95,373.08V486.951q-8.428-.229-16.8-1.14V373.08Z" transform="translate(-102.803 -373.08)" fill="#f5b890"/>
        <path id="Caminho_9" data-name="Caminho 9" d="M160,404.921v72.271q-8.589-3.322-16.8-7.367v-64.9C143.625,393.78,159.579,393.786,160,404.921Z" transform="translate(-87.54 -377.3)" fill="#f5b890"/>
        <path id="Caminho_10" data-name="Caminho 10" d="M92.15,373.507v67.358a211.844,211.844,0,0,1-16.8-15.029V373.507c0-.14,0-.287.008-.427H92.142C92.15,373.228,92.15,373.367,92.15,373.507Z" transform="translate(-75.35 -373.08)" fill="#f5b890"/>
      </g>
    </g>
    <g id="Laptop_5_" transform="translate(34.593 154.711)">
      <g id="Grupo_47" data-name="Grupo 47">
        <g id="Grupo_36" data-name="Grupo 36">
          <path id="Caminho_11" data-name="Caminho 11" d="M224.5,202.9v96.265a14.3,14.3,0,0,1-14.294,14.3H56.47a14.3,14.3,0,0,1-14.3-14.3V202.9a13.677,13.677,0,0,1,.22-2.464A14.282,14.282,0,0,1,56.469,188.6H210.207A14.3,14.3,0,0,1,224.5,202.9Z" transform="translate(-42.169 -188.595)" fill="#3e4e60"/>
          <path id="Caminho_12" data-name="Caminho 12" d="M155.829,316.056H56.47a14.3,14.3,0,0,1-14.3-14.3V205.489a13.678,13.678,0,0,1,.22-2.464,123.563,123.563,0,0,1,113.44,113.031Z" transform="translate(-42.169 -191.188)" fill="#334353"/>
          <path id="Caminho_13" data-name="Caminho 13" d="M243.149,202.9v73.827A79.282,79.282,0,0,1,146.712,188.6h82.143a14.3,14.3,0,0,1,14.294,14.3Z" transform="translate(-60.817 -188.595)" fill="#3f5d77"/>
        </g>
        <g id="Grupo_39" data-name="Grupo 39" transform="translate(6.115 124.867)">
          <g id="Grupo_37" data-name="Grupo 37" transform="translate(0.001 2.452)">
            <path id="Caminho_14" data-name="Caminho 14" d="M287.1,390.162v9.184a2.4,2.4,0,0,1,0,.287v.025c-.129,1.516-1.962,2.476-5.4,2.476H122.422c-6.365,0-15.811-3.271-21.1-7.306l-48.24-36.819c-2.445-1.865-3.571-3.564-3.449-4.855V343.8H60.585v6.9H214.316c6.365,0,15.811,3.271,21.1,7.306l43.257,33.009v-.856Z" transform="translate(-49.625 -343.799)" fill="#334353"/>
            <path id="Caminho_15" data-name="Caminho 15" d="M132.694,376.418a82.385,82.385,0,0,1-4.084,25.716h-6.188c-6.365,0-15.811-3.271-21.1-7.306l-48.239-36.82c-2.445-1.865-3.571-3.564-3.449-4.855V343.8H60.585v6.9h68.025A82.384,82.384,0,0,1,132.694,376.418Z" transform="translate(-49.625 -343.799)" fill="#2e3140"/>
            <path id="Caminho_16" data-name="Caminho 16" d="M310.929,391.674v9.184a2.4,2.4,0,0,1,0,.287v.025c-.129,1.516-1.962,2.476-5.4,2.476H214.945a82.56,82.56,0,0,1-32.71-51.431h55.907c6.365,0,15.811,3.271,21.1,7.306L302.5,392.529v-.856Z" transform="translate(-73.45 -345.311)" fill="#3e4e60"/>
          </g>
          <g id="Grupo_38" data-name="Grupo 38">
            <path id="Caminho_17" data-name="Caminho 17" d="M281.7,392.242H122.422c-6.365,0-15.811-3.271-21.1-7.307l-48.24-36.818c-5.289-4.035-4.414-7.307,1.951-7.307H214.316c6.365,0,15.811,3.271,21.1,7.307l13.634,10.406,34.606,26.412C288.944,388.971,288.07,392.242,281.7,392.242Z" transform="translate(-49.624 -340.81)" fill="#3f5d77"/>
            <path id="Caminho_18" data-name="Caminho 18" d="M307.212,384.936l-34.606-26.412-13.634-10.406c-5.289-4.035-14.735-7.307-21.1-7.307H180.737a82.317,82.317,0,0,0,23.129,51.432H305.261c6.365,0,7.239-3.271,1.951-7.307Z" transform="translate(-73.18 -340.81)" fill="#426c8c"/>
            <path id="Caminho_19" data-name="Caminho 19" d="M132.693,375.881a82.908,82.908,0,0,1-1.62,16.362h-8.651c-6.365,0-15.811-3.271-21.1-7.307l-48.24-36.819c-5.289-4.035-4.414-7.307,1.951-7.307H124.9a82.261,82.261,0,0,1,7.795,35.071Z" transform="translate(-49.624 -340.81)" fill="#3e4e60"/>
            <path id="Caminho_20" data-name="Caminho 20" d="M274.875,358.523a102.838,102.838,0,0,1-30.228,4.219c-28.32,0-51.285-9.819-51.285-21.931h46.779c6.365,0,15.811,3.271,21.1,7.307Z" transform="translate(-75.448 -340.81)" fill="#417fa5"/>
          </g>
        </g>
        <g id="Grupo_40" data-name="Grupo 40" transform="translate(6.114 6.115)">
          <path id="Caminho_21" data-name="Caminho 21" d="M219.727,209.047v80.528a13,13,0,0,1-13,13H62.62a13,13,0,0,1-13-13V209.047a13.009,13.009,0,0,1,13-13H206.728A13,13,0,0,1,219.727,209.047Z" transform="translate(-49.622 -196.049)" fill="#fff"/>
        </g>
        <path id="Caminho_22" data-name="Caminho 22" d="M157.292,328.139H144.942a3.807,3.807,0,0,0-3.807,3.807v.945a3.807,3.807,0,0,0,3.807,3.807h12.349a3.807,3.807,0,0,0,3.807-3.807v-.945A3.806,3.806,0,0,0,157.292,328.139Z" transform="translate(-59.95 -213.666)" fill="#2e3140"/>
        <g id="Grupo_45" data-name="Grupo 45" transform="translate(30.35 130.099)">
          <g id="Grupo_43" data-name="Grupo 43">
            <g id="Grupo_41" data-name="Grupo 41" transform="translate(0 0.004)">
              <path id="Caminho_23" data-name="Caminho 23" d="M126.238,352.1H110.427l-.244-.19-4-3.057a.919.919,0,0,1,.556-1.651h15.8l.244.19,2.965,2.262h.006l1.039.795A.92.92,0,0,1,126.238,352.1Z" transform="translate(-83.954 -347.195)" fill="#2e3140"/>
              <path id="Caminho_24" data-name="Caminho 24" d="M111.586,364.61H96.43l-.239-.184c-.006,0-.006-.006-.012-.006l-5.735-4.377A.919.919,0,0,1,91,358.393h15.157l.244.19,4.7,3.582,1.039.795A.92.92,0,0,1,111.586,364.61Z" transform="translate(-81.127 -349.205)" fill="#2e3140"/>
              <path id="Caminho_25" data-name="Caminho 25" d="M157.416,352.1h-15.8l-.244-.19-4-3.057a.919.919,0,0,1,.556-1.651h15.8l.244.19,2.965,2.262c.02.017,1.165.879,1.131.868A.922.922,0,0,1,157.416,352.1Z" transform="translate(-89.556 -347.195)" fill="#2e3140"/>
              <path id="Caminho_26" data-name="Caminho 26" d="M219.783,352.1h-15.8l-.244-.19-4.011-3.057a.921.921,0,0,1,.556-1.651h15.811l.244.19,2.966,2.262,1.039.795A.919.919,0,0,1,219.783,352.1Z" transform="translate(-100.761 -347.195)" fill="#2e3140"/>
              <path id="Caminho_27" data-name="Caminho 27" d="M188.6,352.1H172.8l-.244-.19-4.011-3.057a.922.922,0,0,1,.563-1.651h15.8l.244.19,2.965,2.262,1.039.795A.919.919,0,0,1,188.6,352.1Z" transform="translate(-95.159 -347.195)" fill="#2e3140"/>
              <path id="Caminho_28" data-name="Caminho 28" d="M161.024,378.655h-15.8l-.22-.172c-.015.02-7.382-5.646-7.4-5.643a.921.921,0,0,1,.563-1.651h15.8l.244.19,6.328,4.83h.006c.021.017,1.157.879,1.125.868A.921.921,0,0,1,161.024,378.655Z" transform="translate(-89.6 -351.504)" fill="#2e3140"/>
              <path id="Caminho_29" data-name="Caminho 29" d="M254.574,378.655h-15.8l-.184-.14c-.006,0-.006-.006-.012-.006-.485-.354-7.2-5.5-7.422-5.668a.919.919,0,0,1,.556-1.651h15.8l.239.184c.006,0,.006.006.012.006l6.328,4.83,1.039.795a.918.918,0,0,1-.556,1.65Z" transform="translate(-106.407 -351.504)" fill="#2e3140"/>
              <path id="Caminho_30" data-name="Caminho 30" d="M192.208,378.655H176.4l-.22-.172c-.015.02-7.382-5.646-7.4-5.643a.92.92,0,0,1,.556-1.651h15.8l.239.184c.006,0,.006.006.012.006l6.328,4.83,1.039.795a.919.919,0,0,1-.557,1.651Z" transform="translate(-95.202 -351.504)" fill="#2e3140"/>
              <path id="Caminho_31" data-name="Caminho 31" d="M223.392,378.655h-15.8l-.22-.172c-.015.02-7.382-5.646-7.4-5.643a.92.92,0,0,1,.556-1.651h15.8l.239.184c.006,0,.006.006.012.006l6.328,4.83,1.039.795a.919.919,0,0,1-.557,1.651Z" transform="translate(-100.805 -351.504)" fill="#2e3140"/>
              <path id="Caminho_32" data-name="Caminho 32" d="M95.87,352.1H80.835c-.092-.085-.177-.171-.257-.257a7.137,7.137,0,0,1-.623-.7v-.006c-2.29-2.908.875-4.038,3.516-3.938h8.7l.239.184c.006,0,.006.006.012.006l2.965,2.262,1.039.795A.92.92,0,0,1,95.87,352.1Z" transform="translate(-79.166 -347.193)" fill="#2e3140"/>
              <path id="Caminho_33" data-name="Caminho 33" d="M129.989,378.655H124a31.647,31.647,0,0,1-16.789-5.815.919.919,0,0,1,.556-1.651h15.157l.244.19,6.334,4.83,1.039.795a.92.92,0,0,1-.555,1.651Z" transform="translate(-84.14 -351.504)" fill="#2e3140"/>
              <path id="Caminho_34" data-name="Caminho 34" d="M249.315,352.1H235.161l-.239-.184c-.006,0-.006-.006-.012-.006l-4-3.057a.92.92,0,0,1,.556-1.651c2.151.044,6.947-.155,9.006.257a35.024,35.024,0,0,1,9.226,2.886A.918.918,0,0,1,249.315,352.1Z" transform="translate(-106.363 -347.192)" fill="#2e3140"/>
              <path id="Caminho_35" data-name="Caminho 35" d="M282.952,376.7a1.591,1.591,0,0,1-.7,1.162.006.006,0,0,0-.006.006,6.644,6.644,0,0,1-3.589.788h-8.7l-.184-.14c-.006,0-.006-.006-.012-.006-.485-.355-7.2-5.5-7.422-5.668a.919.919,0,0,1,.556-1.651h15.157C279.819,372.59,283.132,374.681,282.952,376.7Z" transform="translate(-112.01 -351.504)" fill="#2e3140"/>
              <path id="Caminho_36" data-name="Caminho 36" d="M142.623,364.61h-15.8l-.244-.19-5.741-4.377c-.03-.025-.062-.049-.085-.073a.922.922,0,0,1,.648-1.578h15.8l.244.19,4.7,3.582h.006c.021.017,1.157.879,1.125.868a.922.922,0,0,1-.648,1.578Z" transform="translate(-86.588 -349.205)" fill="#2e3140"/>
              <path id="Caminho_37" data-name="Caminho 37" d="M236.172,364.61h-15.8l-.239-.184c-.006,0-.006-.006-.012-.006l-5.735-4.377a.919.919,0,0,1,.556-1.651h15.8l.239.184c.006,0,.006.006.012.006l4.7,3.582,1.039.795A.918.918,0,0,1,236.172,364.61Z" transform="translate(-103.394 -349.205)" fill="#2e3140"/>
              <path id="Caminho_38" data-name="Caminho 38" d="M173.806,364.61H158l-.244-.19-5.741-4.377a.921.921,0,0,1,.563-1.651h15.8l.244.19,4.7,3.582,1.039.795A.918.918,0,0,1,173.806,364.61Z" transform="translate(-92.19 -349.205)" fill="#2e3140"/>
              <path id="Caminho_39" data-name="Caminho 39" d="M204.989,364.61h-15.8l-.245-.19-5.741-4.377a.92.92,0,0,1,.556-1.651h15.8l.239.184c.006,0,.006.006.012.006l4.7,3.582,1.039.795A.918.918,0,0,1,204.989,364.61Z" transform="translate(-97.792 -349.205)" fill="#2e3140"/>
              <path id="Caminho_40" data-name="Caminho 40" d="M266.7,364.61H251.551l-.239-.184c-.006,0-.006-.006-.012-.006l-5.735-4.377a.919.919,0,0,1,.556-1.651h15.157l.244.19,4.7,3.582,1.039.795A.92.92,0,0,1,266.7,364.61Z" transform="translate(-108.997 -349.205)" fill="#2e3140"/>
            </g>
            <g id="Grupo_42" data-name="Grupo 42" transform="translate(2.519)">
              <path id="Caminho_41" data-name="Caminho 41" d="M126.592,349.657H114.028a.914.914,0,0,1-.556-.189l-2.966-2.263h12.876l.244.19Z" transform="translate(-87.316 -347.191)" fill="#3e4e60"/>
              <path id="Caminho_42" data-name="Caminho 42" d="M111.948,362.165H100.031a.947.947,0,0,1-.563-.19l-4.7-3.583H107l.244.189Z" transform="translate(-84.489 -349.201)" fill="#3e4e60"/>
              <path id="Caminho_43" data-name="Caminho 43" d="M157.776,349.657H145.212a.914.914,0,0,1-.556-.189l-2.966-2.263h12.876l.244.19Z" transform="translate(-92.919 -347.191)" fill="#3e4e60"/>
              <path id="Caminho_44" data-name="Caminho 44" d="M220.144,349.657H207.58a.914.914,0,0,1-.556-.189l-2.966-2.263h12.876l.244.19Z" transform="translate(-104.124 -347.191)" fill="#3e4e60"/>
              <path id="Caminho_45" data-name="Caminho 45" d="M188.96,349.657H176.4a.914.914,0,0,1-.556-.189l-2.966-2.263H185.75l.244.19Z" transform="translate(-98.521 -347.191)" fill="#3e4e60"/>
              <path id="Caminho_46" data-name="Caminho 46" d="M161.383,376.21H148.819a.9.9,0,0,1-.556-.184l-6.334-4.836h12.883l.244.19Z" transform="translate(-92.962 -351.5)" fill="#3e4e60"/>
              <path id="Caminho_47" data-name="Caminho 47" d="M254.935,376.21H242.371a.935.935,0,0,1-.563-.184l-6.328-4.836h12.876l.239.184c.006,0,.006.006.012.006Z" transform="translate(-109.769 -351.5)" fill="#3e4e60"/>
              <path id="Caminho_48" data-name="Caminho 48" d="M192.567,376.21H180a.9.9,0,0,1-.556-.184l-6.334-4.836h12.876l.239.184c.006,0,.006.006.012.006Z" transform="translate(-98.564 -351.5)" fill="#3e4e60"/>
              <path id="Caminho_49" data-name="Caminho 49" d="M223.751,376.21H211.187a.9.9,0,0,1-.556-.184L204.3,371.19h12.876l.239.184c.006,0,.006.006.012.006Z" transform="translate(-104.167 -351.5)" fill="#3e4e60"/>
              <path id="Caminho_50" data-name="Caminho 50" d="M95.938,349.654H84.212c-1-.085-1.828-1.785-1.975-2.317,1.075-.264,9.21-.085,10.486-.135l.239.184c.006,0,.006.006.012.006Z" transform="translate(-82.237 -347.188)" fill="#3e4e60"/>
              <path id="Caminho_51" data-name="Caminho 51" d="M130.369,376.21h-3.057c-4.783,0-11.5-2.276-15.658-5.02H123.79l.244.19Z" transform="translate(-87.522 -351.5)" fill="#3e4e60"/>
              <path id="Caminho_52" data-name="Caminho 52" d="M248.972,349.656H238.761a.947.947,0,0,1-.563-.189l-2.966-2.263c.65.012,3.277-.025,3.87.025a31.51,31.51,0,0,1,9.869,2.427Z" transform="translate(-109.725 -347.19)" fill="#3e4e60"/>
              <path id="Caminho_53" data-name="Caminho 53" d="M283.74,376.075c-1.08.258-8.911.089-10.186.135a.935.935,0,0,1-.563-.184l-6.328-4.836h12.228C280.447,372.349,283.55,374.587,283.74,376.075Z" transform="translate(-115.372 -351.5)" fill="#3e4e60"/>
              <path id="Caminho_54" data-name="Caminho 54" d="M142.982,362.165H130.418a.913.913,0,0,1-.556-.19l-4.7-3.583h12.883l.244.189Z" transform="translate(-89.949 -349.201)" fill="#3e4e60"/>
              <path id="Caminho_55" data-name="Caminho 55" d="M236.533,362.165H223.968a.947.947,0,0,1-.563-.19l-4.7-3.583h12.876l.239.184c.006,0,.006.006.012.006Z" transform="translate(-106.756 -349.201)" fill="#3e4e60"/>
              <path id="Caminho_56" data-name="Caminho 56" d="M174.166,362.165H161.6a.913.913,0,0,1-.556-.19l-4.7-3.583h12.883l.244.189Z" transform="translate(-95.551 -349.201)" fill="#3e4e60"/>
              <path id="Caminho_57" data-name="Caminho 57" d="M205.349,362.165H192.785a.913.913,0,0,1-.556-.19l-4.7-3.583H200.4l.239.184c.006,0,.006.006.012.006Z" transform="translate(-101.154 -349.201)" fill="#3e4e60"/>
              <path id="Caminho_58" data-name="Caminho 58" d="M267.069,362.165H255.152a.947.947,0,0,1-.563-.19l-4.7-3.583h12.228l.244.189Z" transform="translate(-112.359 -349.201)" fill="#3e4e60"/>
            </g>
          </g>
          <g id="Grupo_44" data-name="Grupo 44" transform="translate(72.687 29.838)">
            <path id="Caminho_59" data-name="Caminho 59" d="M238.227,395.037h-53.6a13.644,13.644,0,0,1-7.1-2.464c-1.789-1.351-6.751-5.157-8.591-6.555-1.779-1.358-1.486-2.458.655-2.458h53.6a13.687,13.687,0,0,1,7.1,2.458l8.6,6.555C240.323,393.6,240.717,395.038,238.227,395.037Z" transform="translate(-167.773 -383.561)" fill="#3e4e60"/>
            <path id="Caminho_60" data-name="Caminho 60" d="M239.765,396.294h-53.6a13.644,13.644,0,0,1-7.1-2.464l-2.647-2.018c-.324-.752.275-1.259,1.737-1.259h53.6a13.7,13.7,0,0,1,7.1,2.458l2.641,2.018c.329.752-.276,1.266-1.732,1.266Z" transform="translate(-169.311 -384.817)" fill="#2e3140"/>
          </g>
        </g>
        <g id="Grupo_46" data-name="Grupo 46" transform="translate(109.71 0.002)">
          <path id="Caminho_61" data-name="Caminho 61" d="M218.767,194.711H178.626a2.719,2.719,0,0,1-2.719-2.719v-.675a2.719,2.719,0,0,1,2.719-2.719h40.141a2.719,2.719,0,0,1,2.719,2.719v.675A2.719,2.719,0,0,1,218.767,194.711Z" transform="translate(-175.907 -188.597)" fill="#417fa5"/>
          <path id="Caminho_62" data-name="Caminho 62" d="M309.032,394.085h-39.49a3.438,3.438,0,0,0-3.438,3.438v.853a3.438,3.438,0,0,0,3.438,3.438h39.49a3.438,3.438,0,0,0,3.438-3.438v-.853A3.438,3.438,0,0,0,309.032,394.085Z" transform="translate(-192.112 -225.516)" fill="#417fa5"/>
        </g>
      </g>
    </g>
    <g id="Lightbulb_2_" transform="translate(103.742 170.265)">
      <g id="Grupo_48" data-name="Grupo 48">
        <path id="Caminho_63" data-name="Caminho 63" d="M173.774,231.209c0,6.2-3.271,11.152-6.294,16.032a17.806,17.806,0,0,0-.922,1.759c-.745,1.587-1.558,3.677-2.326,5.785-1.61,4.439-3,8.947-3,8.947H139.007s-3.929-12.738-6.243-16.49c-.482-.774-.968-1.546-1.443-2.331-2.537-4.153-4.857-8.488-4.857-13.7a23.655,23.655,0,1,1,47.31,0Z" transform="translate(-126.463 -207.555)" fill="#daab42"/>
        <path id="Caminho_64" data-name="Caminho 64" d="M135.69,233.317a23.53,23.53,0,0,1-4.37,13.7c-2.537-4.153-4.857-8.488-4.857-13.7a23.508,23.508,0,0,1,4.617-14.033A23.539,23.539,0,0,1,135.69,233.317Z" transform="translate(-126.463 -209.662)" fill="#c4983d"/>
        <path id="Caminho_65" data-name="Caminho 65" d="M176.442,231.384c0,6.2-3.271,11.152-6.294,16.032a17.806,17.806,0,0,0-.922,1.759c-.745,1.587-1.558,3.677-2.326,5.785-.636.052-1.283.08-1.93.08a23.656,23.656,0,0,1-6.094-46.514,23.652,23.652,0,0,1,17.567,22.858Z" transform="translate(-129.131 -207.729)" fill="#f9c744"/>
        <path id="Caminho_66" data-name="Caminho 66" d="M180.789,232.578c0,6.2-3.271,11.152-6.294,16.032a17.81,17.81,0,0,0-.922,1.759,23.646,23.646,0,0,1-.418-35.2,23.583,23.583,0,0,1,7.635,17.405Z" transform="translate(-133.479 -208.924)" fill="#f8d07a"/>
        <circle id="Elipse_5" data-name="Elipse 5" cx="9.706" cy="9.706" r="9.706" transform="translate(24.167 8.844)" fill="#fbd9a3"/>
        <path id="Caminho_67" data-name="Caminho 67" d="M173.774,231.209c0,6.2-3.271,11.152-6.294,16.032a17.806,17.806,0,0,0-.922,1.759c-.745,1.587-1.558,3.677-2.326,5.785-1.61,4.439-3,8.947-3,8.947H139.007s-3.929-12.738-6.243-16.49c-.482-.774-.968-1.546-1.443-2.331-2.537-4.153-4.857-8.488-4.857-13.7a23.655,23.655,0,1,1,47.31,0Z" transform="translate(-126.463 -207.555)" fill="none"/>
      </g>
      <g id="Grupo_49" data-name="Grupo 49" transform="translate(15.281 75.907)">
        <path id="Caminho_68" data-name="Caminho 68" d="M161.845,300.087v3.362a8.377,8.377,0,1,1-16.754,0v-3.362Z" transform="translate(-145.091 -300.087)" fill="#2e3140"/>
        <path id="Caminho_69" data-name="Caminho 69" d="M163.25,300.087v3.362a8.391,8.391,0,0,1-5.166,7.744,8.383,8.383,0,0,1-5.172-7.744v-3.362Z" transform="translate(-146.496 -300.087)" fill="#3e4e60"/>
        <path id="Caminho_70" data-name="Caminho 70" d="M161.845,300.087v3.362a8.377,8.377,0,1,1-16.754,0v-3.362Z" transform="translate(-145.091 -300.087)" fill="none"/>
      </g>
      <g id="Grupo_50" data-name="Grupo 50" transform="translate(19.945 39.786)">
        <path id="Caminho_71" data-name="Caminho 71" d="M150.776,256.055H158.2v16.389h-7.426Z" transform="translate(-150.776 -256.055)" fill="#bf5e39"/>
        <path id="Caminho_72" data-name="Caminho 72" d="M155.3,256.055h3.713v16.389H155.3Z" transform="translate(-151.589 -256.055)" fill="#dd5e26"/>
      </g>
      <g id="Grupo_51" data-name="Grupo 51" transform="translate(12.686 30.532)">
        <path id="Caminho_73" data-name="Caminho 73" d="M163.871,249.4a4.5,4.5,0,0,1-.189,1.312,4.633,4.633,0,0,1-4.439,3.317H146.556a4.628,4.628,0,1,1,0-9.257h12.686a4.635,4.635,0,0,1,4.628,4.628Z" transform="translate(-141.928 -244.774)" fill="#bf5e39"/>
        <path id="Caminho_74" data-name="Caminho 74" d="M164.99,249.4a4.5,4.5,0,0,1-.189,1.312H152.785a4.635,4.635,0,0,1-4.628-4.628,4.7,4.7,0,0,1,.189-1.312h12.016a4.635,4.635,0,0,1,4.628,4.628Z" transform="translate(-143.047 -244.774)" fill="#dd5e26"/>
        <path id="Caminho_75" data-name="Caminho 75" d="M165.324,246.133a4.592,4.592,0,0,1,1.358,3.271,4.5,4.5,0,0,1-.189,1.312h-4.3a4.626,4.626,0,0,1-4.623-4.628,4.5,4.5,0,0,1,.189-1.312h4.3A4.612,4.612,0,0,1,165.324,246.133Z" transform="translate(-144.738 -244.774)" fill="#ea792e"/>
        <path id="Caminho_76" data-name="Caminho 76" d="M163.871,249.4a4.5,4.5,0,0,1-.189,1.312,4.633,4.633,0,0,1-4.439,3.317H146.556a4.628,4.628,0,1,1,0-9.257h12.686a4.635,4.635,0,0,1,4.628,4.628Z" transform="translate(-141.928 -244.774)" fill="none"/>
      </g>
      <g id="Grupo_53" data-name="Grupo 53" transform="translate(6.058 56.175)">
        <path id="Caminho_77" data-name="Caminho 77" d="M169.046,282.225c0,.109-.006.212-.011.309-.212,3.139-3.649,3.734-6.175,5.877-.515.441-.441,2.664-.441,2.664a10.97,10.97,0,0,1-21.777,1.9,10.828,10.828,0,0,1-.167-1.9s.075-2.222-.441-2.664c-2.606-2.211-6.186-2.772-6.186-6.186a6.187,6.187,0,0,1,6.186-6.192h22.824a6.187,6.187,0,0,1,6.188,6.191Z" transform="translate(-133.848 -276.033)" fill="#c1b7d3"/>
        <path id="Caminho_78" data-name="Caminho 78" d="M169.035,283.581v.309c-.212,3.139-3.649,3.734-6.175,5.877-.515.441-.441,2.664-.441,2.664a10.97,10.97,0,0,1-21.777,1.9,10.828,10.828,0,0,1-.167-1.9s.075-2.222-.441-2.664c-2.606-2.211-6.186-2.772-6.186-6.186h35.187Z" transform="translate(-133.848 -277.389)" fill="#aea7b9"/>
        <path id="Caminho_79" data-name="Caminho 79" d="M155.162,283.581s-1.838,13.231-13.637,13.535a10.949,10.949,0,0,1-1.048-4.685s.075-2.222-.441-2.664c-2.606-2.211-6.186-2.772-6.186-6.186Z" transform="translate(-133.848 -277.389)" fill="#9f90ae"/>
        <path id="Caminho_80" data-name="Caminho 80" d="M149.819,279.126a3.1,3.1,0,0,1-3.093,3.1H133.85a6.187,6.187,0,0,1,6.186-6.192h6.69A3.1,3.1,0,0,1,149.819,279.126Z" transform="translate(-133.848 -276.033)" fill="#aea7b9"/>
        <path id="Caminho_81" data-name="Caminho 81" d="M159.652,298.959a2.277,2.277,0,0,1-2.28,2.274H144.061a11.078,11.078,0,0,1-1.048-1.764,10.9,10.9,0,0,1-.882-2.789h15.241A2.278,2.278,0,0,1,159.652,298.959Z" transform="translate(-135.336 -279.743)" fill="#c1b7d3"/>
        <g id="Grupo_52" data-name="Grupo 52" transform="translate(16.04 0)">
          <path id="Caminho_82" data-name="Caminho 82" d="M157.13,301.235h-1.453a2.276,2.276,0,1,1,0-4.553h1.453a2.276,2.276,0,1,1,0,4.553Z" transform="translate(-153.401 -279.743)" fill="#ebd9ea"/>
          <path id="Caminho_83" data-name="Caminho 83" d="M165.8,280.586h-6.909a2.276,2.276,0,1,1,0-4.553H165.8a2.276,2.276,0,0,1,0,4.553Z" transform="translate(-153.979 -276.033)" fill="#ebd9ea"/>
        </g>
      </g>
    </g>
    <g id="Grupo_67" data-name="Grupo 67" transform="translate(219.977 122.907)">
      <g id="Grupo_66" data-name="Grupo 66">
        <g id="Grupo_54" data-name="Grupo 54" transform="translate(48.018 169.116)">
          <path id="Caminho_84" data-name="Caminho 84" d="M434.925,396.267v6.046A210.5,210.5,0,0,1,326.69,475.856V396.267a40.263,40.263,0,0,1,40.27-40.287h27.686a40.278,40.278,0,0,1,40.278,40.287Z" transform="translate(-326.69 -355.98)" fill="#dd5e26"/>
          <path id="Caminho_85" data-name="Caminho 85" d="M409.158,396.267v33.814a209.6,209.6,0,0,1-82.468,45.775V396.267a40.263,40.263,0,0,1,40.27-40.287h1.911a40.278,40.278,0,0,1,40.287,40.287Z" transform="translate(-326.69 -355.98)" fill="#ea792e"/>
        </g>
        <g id="Grupo_55" data-name="Grupo 55" transform="translate(84.25 152.206)">
          <path id="Caminho_86" data-name="Caminho 86" d="M370.857,335.366V354.79a17.885,17.885,0,0,0,35.769,0V335.366Z" transform="translate(-370.857 -335.366)" fill="#9b5b42"/>
          <path id="Caminho_87" data-name="Caminho 87" d="M406.626,335.366V354.79a17.859,17.859,0,0,1-8.8,15.406V349.436a52.4,52.4,0,0,1-20.227,4.03,55.012,55.012,0,0,1-6.738-.42V335.366Z" transform="translate(-370.857 -335.366)" fill="#8e4e3f"/>
        </g>
        <g id="Grupo_65" data-name="Grupo 65">
          <g id="Grupo_58" data-name="Grupo 58" transform="translate(20.608 66.116)">
            <g id="Grupo_56" data-name="Grupo 56" transform="translate(122.996 0.001)">
              <path id="Caminho_88" data-name="Caminho 88" d="M452.08,258.175h-8.87V230.422h8.869a13.876,13.876,0,0,1,0,27.753Z" transform="translate(-443.21 -230.422)" fill="#8e4e3f"/>
              <path id="Caminho_89" data-name="Caminho 89" d="M452.527,251.988H443.21V240.079h9.317a5.954,5.954,0,1,1,0,11.909Z" transform="translate(-443.21 -232.157)" fill="#723e33"/>
            </g>
            <g id="Grupo_57" data-name="Grupo 57">
              <path id="Caminho_90" data-name="Caminho 90" d="M307.153,230.421h3.884v27.753h-3.884a13.876,13.876,0,1,1,0-27.753Z" transform="translate(-293.276 -230.421)" fill="#8e4e3f"/>
              <path id="Caminho_91" data-name="Caminho 91" d="M308.343,240.078h4.331v11.909h-4.331a5.954,5.954,0,1,1,0-11.909Z" transform="translate(-294.913 -232.156)" fill="#723e33"/>
            </g>
          </g>
          <path id="Caminho_92" data-name="Caminho 92" d="M322.889,218.747v8.948a20.53,20.53,0,0,1-20.53-20.53V165.443h20.53Z" transform="translate(-274.3 -152.631)" fill="#442a21"/>
          <g id="Grupo_63" data-name="Grupo 63" transform="translate(38.367 6.395)">
            <path id="Caminho_93" data-name="Caminho 93" d="M314.925,186.456v73.1a52.628,52.628,0,0,0,40.826,51.286,52.683,52.683,0,0,0,64.417-51.286v-73.1a28.842,28.842,0,0,0-28.845-28.833H343.758a28.373,28.373,0,0,0-8.048,1.15A28.824,28.824,0,0,0,314.925,186.456Z" transform="translate(-314.925 -157.621)" fill="#8e4e3f"/>
            <path id="Caminho_94" data-name="Caminho 94" d="M314.925,186.708v73.1a52.628,52.628,0,0,0,40.826,51.286A52.627,52.627,0,0,0,396.578,259.8V231.836a73.979,73.979,0,0,0-60.868-72.811A28.824,28.824,0,0,0,314.925,186.708Z" transform="translate(-314.925 -157.873)" fill="#9b5b42"/>
            <g id="Grupo_60" data-name="Grupo 60" transform="translate(29.763)">
              <g id="Grupo_59" data-name="Grupo 59">
                <path id="Caminho_95" data-name="Caminho 95" d="M359.185,251.817h10.728a7.978,7.978,0,0,1,0,15.956H359.185a7.978,7.978,0,0,1,0-15.956Z" transform="translate(-351.207 -174.545)" fill="#8e4e3f"/>
                <path id="Caminho_96" data-name="Caminho 96" d="M362.664,157.621h13.458v82.687H362.664Z" transform="translate(-353.265 -157.621)" fill="#8e4e3f"/>
              </g>
            </g>
            <g id="Grupo_61" data-name="Grupo 61" transform="translate(17.591 46.068)">
              <path id="Caminho_97" data-name="Caminho 97" d="M394.88,213.779a7.29,7.29,0,0,1,7.29,7.29v12.725a7.29,7.29,0,0,1-14.581,0V221.069A7.29,7.29,0,0,1,394.88,213.779Z" transform="translate(-345.572 -213.779)" fill="#334353"/>
              <path id="Caminho_98" data-name="Caminho 98" d="M343.659,213.779a7.29,7.29,0,0,1,7.29,7.29v12.725a7.29,7.29,0,0,1-14.581,0V221.069A7.29,7.29,0,0,1,343.659,213.779Z" transform="translate(-336.369 -213.779)" fill="#334353"/>
            </g>
            <g id="Grupo_62" data-name="Grupo 62" transform="translate(46.388 95.398)">
              <path id="Caminho_99" data-name="Caminho 99" d="M375.8,301.143a22.93,22.93,0,0,0,22.9-22.9,4.327,4.327,0,1,0-8.654,0A14.266,14.266,0,0,1,375.8,292.488a4.327,4.327,0,0,0,0,8.655Z" transform="translate(-371.473 -273.912)" fill="#723e33"/>
            </g>
          </g>
          <g id="Grupo_64" data-name="Grupo 64" transform="translate(90.987)">
            <path id="Caminho_100" data-name="Caminho 100" d="M443.2,264.092h8.869a13.833,13.833,0,0,0,4.429-.734v3.7a13.324,13.324,0,0,1-13.324,13.324Z" transform="translate(-390.588 -170.223)" fill="#442a21"/>
            <path id="Caminho_101" data-name="Caminho 101" d="M431.686,215.909h8.869a13.714,13.714,0,0,1,4.206.719l.223.011V180.331a30.506,30.506,0,0,0-30.506-30.506H379.07v7.62a18,18,0,0,0,18,18A11.026,11.026,0,0,1,408.1,186.476v6.472a22.96,22.96,0,0,0,22.96,22.96l.624.033v-.033Z" transform="translate(-379.07 -149.825)" fill="#442a21"/>
          </g>
          <path id="Caminho_102" data-name="Caminho 102" d="M295.246,164.375a6.9,6.9,0,0,1-11.383,5.253l-8.252-7.037a4.522,4.522,0,0,0-7.456,3.44v9.734a24.671,24.671,0,0,0,24.671,24.671,21.35,21.35,0,0,0,15.1-6.254l8.753-8.753a33.493,33.493,0,0,1,23.683-9.81h37.618a12.9,12.9,0,0,0,0-25.793H309.794a14.548,14.548,0,0,0-14.548,14.549Z" transform="translate(-268.155 -149.825)" fill="#543029"/>
        </g>
      </g>
      <g id="Glasses_2_" transform="translate(19.521 45.04)">
        <path id="Caminho_103" data-name="Caminho 103" d="M401.212,252.379a21.217,21.217,0,0,1-21.193-21.193h4.389a16.805,16.805,0,0,0,33.611,0h4.389A21.22,21.22,0,0,1,401.212,252.379Z" transform="translate(-307.775 -209.482)" fill="#9acdae"/>
        <path id="Caminho_104" data-name="Caminho 104" d="M331.236,252.379a21.218,21.218,0,0,1-21.194-21.193h4.389a16.805,16.805,0,0,0,33.611,0h4.389A21.219,21.219,0,0,1,331.236,252.379Z" transform="translate(-295.202 -209.482)" fill="#9acdae"/>
        <path id="Caminho_105" data-name="Caminho 105" d="M419.231,209.166H404.39a2.134,2.134,0,0,0-.252.025,7.454,7.454,0,0,0-2.258-1.42,46.2,46.2,0,0,0-32.977,0,7.393,7.393,0,0,0-4.705,6.914v2.649a35.893,35.893,0,0,0-15.016,0v-2.491a7.6,7.6,0,0,0-4.86-7.132,46.214,46.214,0,0,0-32.667,0,7.616,7.616,0,0,0-2.364,1.486,2.167,2.167,0,0,0-.3-.03H294.146a2.194,2.194,0,0,0,0,4.389h12.761a7.779,7.779,0,0,0-.114,1.289v11.588h4.389V214.845a3.24,3.24,0,0,1,2.065-3.044,41.842,41.842,0,0,1,29.481,0,3.24,3.24,0,0,1,2.065,3.044v11.588h4.389V222c.495-.3,2.291-1.075,7.508-1.075,5.038,0,6.915.724,7.508,1.052v4.451h4.389V214.686a3.028,3.028,0,0,1,1.928-2.832,41.811,41.811,0,0,1,29.756,0,3.027,3.027,0,0,1,1.927,2.832v11.746h4.389V214.686a7.588,7.588,0,0,0-.084-1.131h12.732a2.194,2.194,0,1,0,0-4.389Z" transform="translate(-291.952 -204.729)" fill="#53b976"/>
      </g>
    </g>
  </g>
</svg>
