<svg xmlns="http://www.w3.org/2000/svg" width="34.458" height="15.84" viewBox="0 0 34.458 15.84">
  <path id="Icon_map-university" data-name="Icon map-university" d="M18,19.714A14.811,14.811,0,0,0,8.64,22.62v3.3H27.36v-3.3A14.814,14.814,0,0,0,18,19.714Zm17.187-1.693L17.954,10.08.729,18.021,3.6,19.335v2.021c-.72.149-.722.526-.722.975a1.2,1.2,0,0,0,.255.761L2.148,25.2H5.661l-.976-2.11a1.159,1.159,0,0,0,.3-.724c0-.448-.664-.862-.664-1.011V19.673l3.6,1.617v-.143c2.16-1.878,5.955-3.071,10.079-3.071s7.921,1.192,10.081,3.071v.143Z" transform="translate(-0.729 -10.08)" fill="#eee"/>
</svg>
