<svg xmlns="http://www.w3.org/2000/svg" width="223.658" height="187.014" viewBox="0 0 223.658 187.014">
  <g id="codigo-binario" transform="translate(0 -41.943)">
    <path id="Caminho_108" data-name="Caminho 108" d="M244.909,400.067l-38.342,6.783-38.346-6.783,2.054-12.78,1.465-9.129,40.5-8.293,29.153,8.293,1.466,9.129Z" transform="translate(-94.737 -184.675)" fill="#1f3b63"/>
    <path id="Caminho_109" data-name="Caminho 109" d="M245.5,387.286h-72.58l1.465-9.129,40.5-8.293,29.153,8.293Z" transform="translate(-97.385 -184.675)" fill="#152c49"/>
    <path id="Caminho_110" data-name="Caminho 110" d="M208.592,193.482H15.065A15.065,15.065,0,0,1,0,178.417V57.008A15.065,15.065,0,0,1,15.065,41.943H208.592a15.065,15.065,0,0,1,15.065,15.065V178.417A15.065,15.065,0,0,1,208.592,193.482Z" fill="#1f3b63"/>
    <path id="Caminho_111" data-name="Caminho 111" d="M227.621,74.664V196.069a1.375,1.375,0,0,1-1.374,1.374H32.719a1.375,1.375,0,0,1-1.369-1.374V74.664a1.374,1.374,0,0,1,1.369-1.374H226.247A1.375,1.375,0,0,1,227.621,74.664Z" transform="translate(-17.655 -17.654)" fill="#25c2ce"/>
    <path id="Caminho_112" data-name="Caminho 112" d="M341.54,74.664V196.069a1.375,1.375,0,0,1-1.374,1.374H233.632L265.469,73.29h74.7A1.375,1.375,0,0,1,341.54,74.664Z" transform="translate(-131.574 -17.654)" fill="#3ddce0"/>
    <g id="Grupo_74" data-name="Grupo 74" transform="translate(23.284 65.332)">
      <path id="Caminho_113" data-name="Caminho 113" d="M56.451,100.869l-.887.55a1.39,1.39,0,0,1-.764.245c-.887,0-1.5-.948-1.5-1.9a1.826,1.826,0,0,1,.887-1.621L58.225,95.7a1.659,1.659,0,0,1,.887-.214c.978,0,2.11.581,2.11,1.5v19.45c0,.979-1.193,1.468-2.386,1.468s-2.386-.489-2.386-1.468Z" transform="translate(-53.301 -95.486)" fill="#fff"/>
      <path id="Caminho_114" data-name="Caminho 114" d="M89.261,100.869l-.887.55a1.39,1.39,0,0,1-.764.245c-.887,0-1.5-.948-1.5-1.9A1.826,1.826,0,0,1,87,98.147L91.035,95.7a1.659,1.659,0,0,1,.887-.214c.979,0,2.11.581,2.11,1.5v19.45c0,.979-1.193,1.468-2.386,1.468s-2.386-.489-2.386-1.468Z" transform="translate(-71.779 -95.486)" fill="#fff"/>
      <path id="Caminho_115" data-name="Caminho 115" d="M121.791,110.948v-8.1c0-5.26,3.272-7.218,7.493-7.218s7.523,1.957,7.523,7.218v8.1c0,5.26-3.3,7.217-7.523,7.217S121.791,116.208,121.791,110.948Zm10.245-8.1c0-2.11-1.04-3.058-2.752-3.058s-2.722.948-2.722,3.058v8.1c0,2.11,1.009,3.058,2.722,3.058s2.752-.948,2.752-3.058Z" transform="translate(-91.872 -95.565)" fill="#fff"/>
      <path id="Caminho_116" data-name="Caminho 116" d="M172.873,110.948v-8.1c0-5.26,3.272-7.218,7.493-7.218s7.523,1.957,7.523,7.218v8.1c0,5.26-3.3,7.217-7.523,7.217S172.873,116.208,172.873,110.948Zm10.245-8.1c0-2.11-1.04-3.058-2.752-3.058s-2.722.948-2.722,3.058v8.1c0,2.11,1.009,3.058,2.722,3.058s2.752-.948,2.752-3.058Z" transform="translate(-120.64 -95.565)" fill="#fff"/>
      <path id="Caminho_117" data-name="Caminho 117" d="M224.235,100.869l-.887.55a1.39,1.39,0,0,1-.764.245c-.887,0-1.5-.948-1.5-1.9a1.826,1.826,0,0,1,.887-1.621l4.037-2.447a1.659,1.659,0,0,1,.887-.214c.978,0,2.11.581,2.11,1.5v19.45c0,.979-1.193,1.468-2.386,1.468s-2.386-.489-2.386-1.468V100.869Z" transform="translate(-147.792 -95.486)" fill="#fff"/>
      <path id="Caminho_118" data-name="Caminho 118" d="M256.765,110.948v-8.1c0-5.26,3.272-7.218,7.493-7.218s7.523,1.957,7.523,7.218v8.1c0,5.26-3.3,7.217-7.523,7.217S256.765,116.208,256.765,110.948Zm10.245-8.1c0-2.11-1.04-3.058-2.752-3.058s-2.722.948-2.722,3.058v8.1c0,2.11,1.009,3.058,2.722,3.058s2.752-.948,2.752-3.058Z" transform="translate(-167.886 -95.565)" fill="#fff"/>
      <path id="Caminho_119" data-name="Caminho 119" d="M308.127,100.869l-.887.55a1.391,1.391,0,0,1-.764.245c-.887,0-1.5-.948-1.5-1.9a1.827,1.827,0,0,1,.886-1.621L309.9,95.7a1.659,1.659,0,0,1,.887-.214c.979,0,2.11.581,2.11,1.5v19.45c0,.979-1.193,1.468-2.386,1.468s-2.385-.489-2.385-1.468V100.868h0Z" transform="translate(-195.037 -95.486)" fill="#fff"/>
      <path id="Caminho_120" data-name="Caminho 120" d="M340.658,110.948v-8.1c0-5.26,3.272-7.218,7.493-7.218s7.523,1.957,7.523,7.218v8.1c0,5.26-3.3,7.217-7.523,7.217S340.658,116.208,340.658,110.948Zm10.245-8.1c0-2.11-1.04-3.058-2.752-3.058s-2.722.948-2.722,3.058v8.1c0,2.11,1.009,3.058,2.722,3.058s2.752-.948,2.752-3.058Z" transform="translate(-215.131 -95.565)" fill="#fff"/>
      <path id="Caminho_121" data-name="Caminho 121" d="M391.738,110.948v-8.1c0-5.26,3.272-7.218,7.493-7.218s7.523,1.957,7.523,7.218v8.1c0,5.26-3.3,7.217-7.523,7.217S391.738,116.208,391.738,110.948Zm10.245-8.1c0-2.11-1.04-3.058-2.752-3.058s-2.722.948-2.722,3.058v8.1c0,2.11,1.009,3.058,2.722,3.058s2.752-.948,2.752-3.058Z" transform="translate(-243.898 -95.565)" fill="#fff"/>
      <path id="Caminho_122" data-name="Caminho 122" d="M443.1,100.869l-.887.55a1.391,1.391,0,0,1-.765.245c-.887,0-1.5-.948-1.5-1.9a1.827,1.827,0,0,1,.886-1.621l4.037-2.447a1.659,1.659,0,0,1,.887-.214c.979,0,2.11.581,2.11,1.5v19.45c0,.979-1.193,1.468-2.386,1.468s-2.385-.489-2.385-1.468V100.868h0Z" transform="translate(-271.051 -95.486)" fill="#fff"/>
      <path id="Caminho_123" data-name="Caminho 123" d="M56.171,173.642v-8.1c0-5.26,3.272-7.218,7.493-7.218s7.523,1.957,7.523,7.218v8.1c0,5.26-3.3,7.217-7.523,7.217S56.171,178.9,56.171,173.642Zm10.245-8.1c0-2.11-1.04-3.058-2.752-3.058s-2.722.948-2.722,3.058v8.1c0,2.11,1.009,3.058,2.722,3.058s2.752-.948,2.752-3.058Z" transform="translate(-54.917 -130.872)" fill="#fff"/>
      <path id="Caminho_124" data-name="Caminho 124" d="M105.222,173.642v-8.1c0-5.26,3.272-7.218,7.493-7.218s7.523,1.957,7.523,7.218v8.1c0,5.26-3.3,7.217-7.523,7.217S105.222,178.9,105.222,173.642Zm10.245-8.1c0-2.11-1.04-3.058-2.752-3.058s-2.722.948-2.722,3.058v8.1c0,2.11,1.009,3.058,2.722,3.058s2.752-.948,2.752-3.058Z" transform="translate(-82.541 -130.872)" fill="#fff"/>
      <path id="Caminho_125" data-name="Caminho 125" d="M154.274,173.642v-8.1c0-5.26,3.272-7.218,7.493-7.218s7.523,1.957,7.523,7.218v8.1c0,5.26-3.3,7.217-7.523,7.217S154.274,178.9,154.274,173.642Zm10.245-8.1c0-2.11-1.04-3.058-2.752-3.058s-2.722.948-2.722,3.058v8.1c0,2.11,1.009,3.058,2.722,3.058s2.752-.948,2.752-3.058Z" transform="translate(-110.166 -130.872)" fill="#fff"/>
      <path id="Caminho_126" data-name="Caminho 126" d="M203.326,173.642v-8.1c0-5.26,3.272-7.218,7.493-7.218s7.523,1.957,7.523,7.218v8.1c0,5.26-3.3,7.217-7.523,7.217S203.326,178.9,203.326,173.642Zm10.245-8.1c0-2.11-1.04-3.058-2.752-3.058s-2.722.948-2.722,3.058v8.1c0,2.11,1.009,3.058,2.722,3.058s2.752-.948,2.752-3.058Z" transform="translate(-137.79 -130.872)" fill="#fff"/>
      <path id="Caminho_127" data-name="Caminho 127" d="M252.377,173.642v-8.1c0-5.26,3.272-7.218,7.493-7.218s7.523,1.957,7.523,7.218v8.1c0,5.26-3.3,7.217-7.523,7.217S252.377,178.9,252.377,173.642Zm10.245-8.1c0-2.11-1.039-3.058-2.752-3.058s-2.722.948-2.722,3.058v8.1c0,2.11,1.009,3.058,2.722,3.058s2.752-.948,2.752-3.058Z" transform="translate(-165.414 -130.872)" fill="#fff"/>
      <path id="Caminho_128" data-name="Caminho 128" d="M301.71,163.563l-.887.55a1.391,1.391,0,0,1-.764.245c-.887,0-1.5-.948-1.5-1.9a1.827,1.827,0,0,1,.886-1.621l4.037-2.447a1.659,1.659,0,0,1,.887-.214c.978,0,2.11.581,2.11,1.5v19.45c0,.978-1.193,1.468-2.386,1.468s-2.386-.489-2.386-1.468V163.562h0Z" transform="translate(-191.423 -130.793)" fill="#fff"/>
      <path id="Caminho_129" data-name="Caminho 129" d="M332.21,173.642v-8.1c0-5.26,3.272-7.218,7.493-7.218s7.523,1.957,7.523,7.218v8.1c0,5.26-3.3,7.217-7.523,7.217S332.21,178.9,332.21,173.642Zm10.245-8.1c0-2.11-1.04-3.058-2.752-3.058s-2.722.948-2.722,3.058v8.1c0,2.11,1.009,3.058,2.722,3.058s2.752-.948,2.752-3.058Z" transform="translate(-210.374 -130.872)" fill="#fff"/>
      <path id="Caminho_130" data-name="Caminho 130" d="M381.541,163.563l-.887.55a1.391,1.391,0,0,1-.764.245c-.887,0-1.5-.948-1.5-1.9a1.827,1.827,0,0,1,.886-1.621l4.037-2.447a1.659,1.659,0,0,1,.887-.214c.978,0,2.11.581,2.11,1.5v19.45c0,.978-1.193,1.468-2.386,1.468s-2.385-.489-2.385-1.468V163.562h0Z" transform="translate(-236.381 -130.793)" fill="#fff"/>
      <path id="Caminho_131" data-name="Caminho 131" d="M412.321,163.563l-.887.55a1.391,1.391,0,0,1-.764.245c-.887,0-1.5-.948-1.5-1.9a1.827,1.827,0,0,1,.886-1.621l4.037-2.447a1.659,1.659,0,0,1,.887-.214c.978,0,2.11.581,2.11,1.5v19.45c0,.978-1.193,1.468-2.386,1.468s-2.386-.489-2.386-1.468V163.562h0Z" transform="translate(-253.716 -130.793)" fill="#fff"/>
      <path id="Caminho_132" data-name="Caminho 132" d="M443.1,163.563l-.887.55a1.391,1.391,0,0,1-.765.245c-.887,0-1.5-.948-1.5-1.9a1.827,1.827,0,0,1,.886-1.621l4.037-2.447a1.659,1.659,0,0,1,.887-.214c.979,0,2.11.581,2.11,1.5v19.45c0,.978-1.193,1.468-2.386,1.468s-2.385-.489-2.385-1.468V163.562h0Z" transform="translate(-271.051 -130.793)" fill="#fff"/>
      <path id="Caminho_133" data-name="Caminho 133" d="M56.451,226.257l-.887.55a1.39,1.39,0,0,1-.764.245c-.887,0-1.5-.948-1.5-1.9a1.826,1.826,0,0,1,.887-1.621l4.037-2.447a1.659,1.659,0,0,1,.887-.214c.978,0,2.11.581,2.11,1.5v19.45c0,.979-1.193,1.468-2.386,1.468s-2.386-.489-2.386-1.468Z" transform="translate(-53.301 -166.101)" fill="#fff"/>
      <path id="Caminho_134" data-name="Caminho 134" d="M89.261,226.257l-.887.55a1.39,1.39,0,0,1-.764.245c-.887,0-1.5-.948-1.5-1.9A1.826,1.826,0,0,1,87,223.535l4.037-2.447a1.659,1.659,0,0,1,.887-.214c.979,0,2.11.581,2.11,1.5v19.45c0,.979-1.193,1.468-2.386,1.468s-2.386-.489-2.386-1.468Z" transform="translate(-71.779 -166.101)" fill="#fff"/>
      <path id="Caminho_135" data-name="Caminho 135" d="M121.791,236.336v-8.1c0-5.26,3.272-7.218,7.493-7.218s7.523,1.957,7.523,7.218v8.1c0,5.26-3.3,7.217-7.523,7.217S121.791,241.6,121.791,236.336Zm10.245-8.1c0-2.11-1.04-3.058-2.752-3.058s-2.722.948-2.722,3.058v8.1c0,2.11,1.009,3.058,2.722,3.058s2.752-.948,2.752-3.058Z" transform="translate(-91.872 -166.179)" fill="#fff"/>
      <path id="Caminho_136" data-name="Caminho 136" d="M173.154,226.257l-.887.55a1.39,1.39,0,0,1-.764.245c-.887,0-1.5-.948-1.5-1.9a1.826,1.826,0,0,1,.887-1.621l4.037-2.447a1.659,1.659,0,0,1,.887-.214c.979,0,2.11.581,2.11,1.5v19.45c0,.979-1.193,1.468-2.386,1.468s-2.386-.489-2.386-1.468V226.257Z" transform="translate(-119.024 -166.101)" fill="#fff"/>
      <path id="Caminho_137" data-name="Caminho 137" d="M205.683,236.336v-8.1c0-5.26,3.272-7.218,7.493-7.218s7.523,1.957,7.523,7.218v8.1c0,5.26-3.3,7.217-7.523,7.217S205.683,241.6,205.683,236.336Zm10.245-8.1c0-2.11-1.04-3.058-2.752-3.058s-2.722.948-2.722,3.058v8.1c0,2.11,1.009,3.058,2.722,3.058s2.752-.948,2.752-3.058Z" transform="translate(-139.118 -166.179)" fill="#fff"/>
      <path id="Caminho_138" data-name="Caminho 138" d="M256.765,236.336v-8.1c0-5.26,3.272-7.218,7.493-7.218s7.523,1.957,7.523,7.218v8.1c0,5.26-3.3,7.217-7.523,7.217S256.765,241.6,256.765,236.336Zm10.245-8.1c0-2.11-1.04-3.058-2.752-3.058s-2.722.948-2.722,3.058v8.1c0,2.11,1.009,3.058,2.722,3.058s2.752-.948,2.752-3.058Z" transform="translate(-167.886 -166.179)" fill="#fff"/>
      <path id="Caminho_139" data-name="Caminho 139" d="M308.127,226.257l-.887.55a1.391,1.391,0,0,1-.764.245c-.887,0-1.5-.948-1.5-1.9a1.827,1.827,0,0,1,.886-1.621l4.037-2.447a1.66,1.66,0,0,1,.887-.214c.979,0,2.11.581,2.11,1.5v19.45c0,.979-1.193,1.468-2.386,1.468s-2.385-.489-2.385-1.468V226.256h0Z" transform="translate(-195.037 -166.101)" fill="#fff"/>
      <path id="Caminho_140" data-name="Caminho 140" d="M340.658,236.336v-8.1c0-5.26,3.272-7.218,7.493-7.218s7.523,1.957,7.523,7.218v8.1c0,5.26-3.3,7.217-7.523,7.217S340.658,241.6,340.658,236.336Zm10.245-8.1c0-2.11-1.04-3.058-2.752-3.058s-2.722.948-2.722,3.058v8.1c0,2.11,1.009,3.058,2.722,3.058s2.752-.948,2.752-3.058Z" transform="translate(-215.131 -166.179)" fill="#fff"/>
      <path id="Caminho_141" data-name="Caminho 141" d="M391.738,236.336v-8.1c0-5.26,3.272-7.218,7.493-7.218s7.523,1.957,7.523,7.218v8.1c0,5.26-3.3,7.217-7.523,7.217S391.738,241.6,391.738,236.336Zm10.245-8.1c0-2.11-1.04-3.058-2.752-3.058s-2.722.948-2.722,3.058v8.1c0,2.11,1.009,3.058,2.722,3.058s2.752-.948,2.752-3.058Z" transform="translate(-243.898 -166.179)" fill="#fff"/>
      <path id="Caminho_142" data-name="Caminho 142" d="M443.1,226.257l-.887.55a1.391,1.391,0,0,1-.764.245c-.887,0-1.5-.948-1.5-1.9a1.827,1.827,0,0,1,.886-1.621l4.037-2.447a1.66,1.66,0,0,1,.887-.214c.979,0,2.11.581,2.11,1.5v19.45c0,.979-1.193,1.468-2.386,1.468s-2.386-.489-2.386-1.468V226.256h0Z" transform="translate(-271.05 -166.101)" fill="#fff"/>
      <path id="Caminho_143" data-name="Caminho 143" d="M56.394,299.029v-8.1c0-5.26,3.272-7.218,7.493-7.218s7.523,1.957,7.523,7.218v8.1c0,5.26-3.3,7.217-7.523,7.217S56.394,304.289,56.394,299.029Zm10.245-8.1c0-2.11-1.04-3.058-2.752-3.058s-2.722.948-2.722,3.058v8.1c0,2.11,1.009,3.058,2.722,3.058s2.752-.948,2.752-3.058Z" transform="translate(-55.043 -201.486)" fill="#fff"/>
      <path id="Caminho_144" data-name="Caminho 144" d="M105.676,288.951l-.887.55a1.39,1.39,0,0,1-.764.245c-.887,0-1.5-.948-1.5-1.9a1.826,1.826,0,0,1,.887-1.621l4.037-2.447a1.659,1.659,0,0,1,.887-.214c.979,0,2.11.581,2.11,1.5v19.45c0,.979-1.193,1.468-2.386,1.468s-2.386-.489-2.386-1.468Z" transform="translate(-81.023 -201.408)" fill="#fff"/>
      <path id="Caminho_145" data-name="Caminho 145" d="M136.126,299.029v-8.1c0-5.26,3.272-7.218,7.493-7.218s7.523,1.957,7.523,7.218v8.1c0,5.26-3.3,7.217-7.523,7.217S136.126,304.289,136.126,299.029Zm10.245-8.1c0-2.11-1.04-3.058-2.752-3.058s-2.722.948-2.722,3.058v8.1c0,2.11,1.009,3.058,2.722,3.058s2.752-.948,2.752-3.058Z" transform="translate(-99.945 -201.486)" fill="#fff"/>
      <path id="Caminho_146" data-name="Caminho 146" d="M185.409,288.951l-.887.55a1.39,1.39,0,0,1-.764.245c-.887,0-1.5-.948-1.5-1.9a1.826,1.826,0,0,1,.887-1.621l4.037-2.447a1.659,1.659,0,0,1,.887-.214c.978,0,2.11.581,2.11,1.5v19.45c0,.979-1.193,1.468-2.386,1.468s-2.386-.489-2.386-1.468V288.951Z" transform="translate(-125.926 -201.408)" fill="#fff"/>
      <path id="Caminho_147" data-name="Caminho 147" d="M215.859,299.029v-8.1c0-5.26,3.272-7.218,7.493-7.218s7.523,1.957,7.523,7.218v8.1c0,5.26-3.3,7.217-7.523,7.217S215.859,304.289,215.859,299.029Zm10.245-8.1c0-2.11-1.04-3.058-2.752-3.058s-2.722.948-2.722,3.058v8.1c0,2.11,1.009,3.058,2.722,3.058s2.752-.948,2.752-3.058Z" transform="translate(-144.849 -201.486)" fill="#fff"/>
      <path id="Caminho_148" data-name="Caminho 148" d="M265.142,288.951l-.887.55a1.391,1.391,0,0,1-.764.245c-.887,0-1.5-.948-1.5-1.9a1.827,1.827,0,0,1,.886-1.621l4.037-2.447a1.659,1.659,0,0,1,.887-.214c.978,0,2.11.581,2.11,1.5v19.45c0,.979-1.193,1.468-2.386,1.468s-2.386-.489-2.386-1.468V288.951Z" transform="translate(-170.829 -201.408)" fill="#fff"/>
      <path id="Caminho_149" data-name="Caminho 149" d="M295.592,299.029v-8.1c0-5.26,3.272-7.218,7.493-7.218s7.523,1.957,7.523,7.218v8.1c0,5.26-3.3,7.217-7.523,7.217S295.592,304.289,295.592,299.029Zm10.245-8.1c0-2.11-1.04-3.058-2.752-3.058s-2.722.948-2.722,3.058v8.1c0,2.11,1.009,3.058,2.722,3.058s2.752-.948,2.752-3.058Z" transform="translate(-189.752 -201.486)" fill="#fff"/>
      <path id="Caminho_150" data-name="Caminho 150" d="M344.873,288.951l-.887.55a1.391,1.391,0,0,1-.764.245c-.887,0-1.5-.948-1.5-1.9a1.827,1.827,0,0,1,.886-1.621l4.037-2.447a1.659,1.659,0,0,1,.887-.214c.978,0,2.11.581,2.11,1.5v19.45c0,.979-1.193,1.468-2.386,1.468s-2.386-.489-2.386-1.468V288.951Z" transform="translate(-215.731 -201.408)" fill="#fff"/>
      <path id="Caminho_151" data-name="Caminho 151" d="M375.323,299.029v-8.1c0-5.26,3.272-7.218,7.493-7.218s7.523,1.957,7.523,7.218v8.1c0,5.26-3.3,7.217-7.523,7.217S375.323,304.289,375.323,299.029Zm10.245-8.1c0-2.11-1.04-3.058-2.752-3.058s-2.722.948-2.722,3.058v8.1c0,2.11,1.009,3.058,2.722,3.058s2.752-.948,2.752-3.058Z" transform="translate(-234.654 -201.486)" fill="#fff"/>
      <path id="Caminho_152" data-name="Caminho 152" d="M424.326,299.029v-8.1c0-5.26,3.272-7.218,7.492-7.218s7.523,1.957,7.523,7.218v8.1c0,5.26-3.3,7.217-7.523,7.217S424.326,304.289,424.326,299.029Zm10.245-8.1c0-2.11-1.04-3.058-2.753-3.058s-2.722.948-2.722,3.058v8.1c0,2.11,1.009,3.058,2.722,3.058s2.753-.948,2.753-3.058Z" transform="translate(-262.251 -201.486)" fill="#fff"/>
    </g>
    <path id="Caminho_153" data-name="Caminho 153" d="M237.848,452.568H112.324v-5.741A7.825,7.825,0,0,1,120.149,439H230.024a7.825,7.825,0,0,1,7.825,7.825v5.741Z" transform="translate(-63.257 -223.612)" fill="#1f3b63"/>
  </g>
</svg>
