<svg xmlns="http://www.w3.org/2000/svg" width="22.059" height="18.697" viewBox="0 0 22.059 18.697">
  <path id="Icon_awesome-chalkboard-teacher" data-name="Icon awesome-chalkboard-teacher" d="M7.169,12.854a.748.748,0,0,0-.243.04,4.317,4.317,0,0,1-1.411.252A4.32,4.32,0,0,1,4.1,12.894a.746.746,0,0,0-.243-.04A3.982,3.982,0,0,0,0,16.967,1.7,1.7,0,0,0,1.654,18.7H9.375a1.7,1.7,0,0,0,1.654-1.73A3.982,3.982,0,0,0,7.169,12.854ZM5.515,11.686A3.412,3.412,0,0,0,8.824,8.18,3.412,3.412,0,0,0,5.515,4.674,3.412,3.412,0,0,0,2.206,8.18,3.412,3.412,0,0,0,5.515,11.686ZM20.4,0H7.169A1.74,1.74,0,0,0,5.515,1.811V3.506a4.179,4.179,0,0,1,2.206.65V2.337H19.853V12.854H17.647V10.517H13.235v2.337H10.608a4.7,4.7,0,0,1,1.368,2.337H20.4a1.74,1.74,0,0,0,1.654-1.811V1.811A1.74,1.74,0,0,0,20.4,0Z" transform="translate(0)" fill="#eee"/>
</svg>
