<svg xmlns="http://www.w3.org/2000/svg" width="150.82" height="185.383" viewBox="0 0 150.82 185.383">
  <g id="professora" transform="translate(-5.67 -2.5)">
    <g id="Grupo_76" data-name="Grupo 76" transform="translate(5.67 49.631)">
      <circle id="Elipse_6" data-name="Elipse 6" cx="12.568" cy="12.568" r="12.568"/>
    </g>
    <path id="Caminho_167" data-name="Caminho 167" d="M54.017,3.5A40.846,40.846,0,0,0,13.17,44.347v72.268H57.159V104.047H72.87A22,22,0,0,0,94.864,82.052v-37.7A40.846,40.846,0,0,0,54.017,3.5Z" transform="translate(16.066 2.142)" fill="#eec78e"/>
    <g id="Grupo_92" data-name="Grupo 92" transform="translate(29.236 106.189)">
      <path id="Caminho_168" data-name="Caminho 168" d="M57.159,48.068H13.17A12.569,12.569,0,0,1,25.738,35.5H57.159Z" transform="translate(-13.17 -35.5)" fill="#db9e68"/>
    </g>
    <path id="Caminho_169" data-name="Caminho 169" d="M88.864,39.5H26.022A18.851,18.851,0,0,0,7.17,58.352v50.273H107.717V58.352A18.851,18.851,0,0,0,88.864,39.5Z" transform="translate(3.213 79.257)" fill="#dbdee3"/>
    <g id="Grupo_94" data-name="Grupo 94" transform="translate(10.383 118.757)">
      <path id="Caminho_170" data-name="Caminho 170" d="M49.588,39.5H26.022A18.851,18.851,0,0,0,7.17,58.352v50.273H62.156V52.068A12.569,12.569,0,0,0,49.588,39.5Z" transform="translate(-7.17 -39.5)" fill="#f68820"/>
      <g id="Grupo_93" data-name="Grupo 93" transform="translate(67.555)">
        <path id="Caminho_171" data-name="Caminho 171" d="M42.809,39.5H28.67A12.569,12.569,0,0,1,41.238,52.068v56.557H61.662V58.352A18.851,18.851,0,0,0,42.809,39.5Z" transform="translate(-28.67 -39.5)" fill="#f68820"/>
      </g>
    </g>
    <g id="Grupo_95" data-name="Grupo 95" transform="translate(10.383 118.757)">
      <path id="Caminho_172" data-name="Caminho 172" d="M7.17,108.626h37.7V58.352a18.852,18.852,0,1,0-37.7,0Z" transform="translate(-7.17 -39.5)" fill="#fbbe18"/>
    </g>
    <g id="Grupo_96" data-name="Grupo 96" transform="translate(99.361 52.915)">
      <ellipse id="Elipse_8" data-name="Elipse 8" cx="3.142" cy="7.07" rx="3.142" ry="7.07" fill="#55525b"/>
    </g>
    <g id="Grupo_97" data-name="Grupo 97" transform="translate(79.509 52.915)">
      <ellipse id="Elipse_9" data-name="Elipse 9" cx="3.142" cy="7.07" rx="3.142" ry="7.07" fill="#55525b"/>
    </g>
    <g id="Grupo_98" data-name="Grupo 98" transform="translate(22.951 2.5)">
      <path id="Caminho_173" data-name="Caminho 173" d="M104.98,43.143A47.118,47.118,0,0,0,61.83,2.663c-1.163-.1-2.338-.163-3.529-.163A47.132,47.132,0,0,0,11.17,49.631v37.7A12.569,12.569,0,0,0,23.738,99.9h6.284A12.569,12.569,0,0,0,42.591,87.336V55.915A15.712,15.712,0,0,0,58.3,40.2a9.426,9.426,0,0,0,9.426,9.426H99.211A5.8,5.8,0,0,0,104.98,43.143Z" transform="translate(-11.17 -2.5)" fill="#212121"/>
    </g>
    <g id="Grupo_99" data-name="Grupo 99" transform="translate(41.804 55.915)">
      <path id="Caminho_174" data-name="Caminho 174" d="M29.738,19.5a12.568,12.568,0,1,0,0,25.137Z" transform="translate(-17.17 -19.5)" fill="#db9e68"/>
    </g>
    <g id="Grupo_100" data-name="Grupo 100" transform="translate(85.793 92.049)">
      <path id="Caminho_175" data-name="Caminho 175" d="M37.454,37.284A6.282,6.282,0,0,0,43.738,31H31.17A6.282,6.282,0,0,0,37.454,37.284Z" transform="translate(-31.17 -31)" fill="#55525b"/>
    </g>
    <path id="Caminho_176" data-name="Caminho 176" d="M68.3,17a10.96,10.96,0,0,0-9.426,5.423,10.916,10.916,0,0,0-19.911,2.432H21.17V28H38.451a10.963,10.963,0,0,0,20.424,5.574A10.978,10.978,0,1,0,68.3,17ZM49.449,35.852A7.855,7.855,0,1,1,57.3,28,7.864,7.864,0,0,1,49.449,35.852Zm18.852,0A7.855,7.855,0,1,1,76.156,28,7.862,7.862,0,0,1,68.3,35.852Z" transform="translate(33.202 31.06)" fill="#6fa4d8"/>
    <g id="Grupo_101" data-name="Grupo 101" transform="translate(118.785 143.894)">
      <path id="Caminho_177" data-name="Caminho 177" d="M46.383,47.5a4.715,4.715,0,0,0-4.713,4.713V91.489H51.1V52.213A4.715,4.715,0,0,0,46.383,47.5Z" transform="translate(-41.67 -47.5)" fill="#eec78e"/>
    </g>
    <g id="Grupo_102" data-name="Grupo 102" transform="translate(128.211 175.314)">
      <path id="Caminho_178" data-name="Caminho 178" d="M44.67,57.5H68.236V70.068H44.67Z" transform="translate(-44.67 -57.5)" fill="#db9e68"/>
    </g>
    <g id="Grupo_103" data-name="Grupo 103" transform="translate(128.211 165.888)">
      <path id="Caminho_179" data-name="Caminho 179" d="M49.383,54.5a4.715,4.715,0,0,0-4.713,4.713V65.5a4.713,4.713,0,1,0,9.426,0V59.213A4.715,4.715,0,0,0,49.383,54.5Z" transform="translate(-44.67 -54.5)" fill="#eec78e"/>
    </g>
    <g id="Grupo_104" data-name="Grupo 104" transform="translate(137.637 165.888)">
      <path id="Caminho_180" data-name="Caminho 180" d="M52.383,54.5a4.715,4.715,0,0,0-4.713,4.713V65.5a4.713,4.713,0,0,0,9.426,0V59.213A4.715,4.715,0,0,0,52.383,54.5Z" transform="translate(-47.67 -54.5)" fill="#eec78e"/>
    </g>
    <g id="Grupo_105" data-name="Grupo 105" transform="translate(147.064 169.03)">
      <path id="Caminho_181" data-name="Caminho 181" d="M55.383,55.5a4.715,4.715,0,0,0-4.713,4.713v3.142a4.713,4.713,0,1,0,9.426,0V60.213A4.715,4.715,0,0,0,55.383,55.5Z" transform="translate(-50.67 -55.5)" fill="#eec78e"/>
    </g>
    <g id="Grupo_106" data-name="Grupo 106" transform="translate(92.077 65.342)">
      <path id="Caminho_182" data-name="Caminho 182" d="M39.454,44.495A6.282,6.282,0,0,1,33.17,38.21V22.5A12.569,12.569,0,0,1,45.738,35.068V38.21A6.284,6.284,0,0,1,39.454,44.495Z" transform="translate(-33.17 -22.5)" fill="#db9e68"/>
    </g>
  </g>
</svg>
