<svg id="seguranca" xmlns="http://www.w3.org/2000/svg" width="203.565" height="203.565" viewBox="0 0 203.565 203.565">
  <path id="Caminho_198" data-name="Caminho 198" d="M66.783,106.481H32V75.667H43.928V94.553H66.783Z" transform="translate(-19.277 -45.583)" fill="#3c4a83"/>
  <path id="Caminho_199" data-name="Caminho 199" d="M18.687,37.373A18.687,18.687,0,1,1,37.373,18.687,18.708,18.708,0,0,1,18.687,37.373Z" fill="#60e2f4"/>
  <path id="Caminho_200" data-name="Caminho 200" d="M428.416,106.481H394.371V94.553h22.117V75.667h11.928Z" transform="translate(-237.574 -45.583)" fill="#2a386b"/>
  <path id="Caminho_201" data-name="Caminho 201" d="M436.687,37.373a18.687,18.687,0,1,1,18.687-18.687A18.708,18.708,0,0,1,436.687,37.373Z" transform="translate(-251.808)" fill="#29c5ec"/>
  <path id="Caminho_202" data-name="Caminho 202" d="M43.928,389.646H32V358.832H66.045V370.76H43.928Z" transform="translate(-19.277 -216.164)" fill="#3c4a83"/>
  <path id="Caminho_203" data-name="Caminho 203" d="M18.687,455.373a18.687,18.687,0,1,1,18.687-18.687A18.708,18.708,0,0,1,18.687,455.373Z" transform="translate(0 -251.808)" fill="#60e2f4"/>
  <path id="Caminho_204" data-name="Caminho 204" d="M428.416,389.646H416.488V370.76H394.371V358.832h34.045Z" transform="translate(-237.574 -216.164)" fill="#2a386b"/>
  <path id="Caminho_205" data-name="Caminho 205" d="M436.687,455.373a18.687,18.687,0,1,1,18.687-18.687A18.708,18.708,0,0,1,436.687,455.373Z" transform="translate(-251.808 -251.808)" fill="#29c5ec"/>
  <path id="Caminho_206" data-name="Caminho 206" d="M15,241H39.121v11.928H15Z" transform="translate(-9.036 -145.181)" fill="#3c4a83"/>
  <path id="Caminho_207" data-name="Caminho 207" d="M436.333,241h24.121v11.928H436.333Z" transform="translate(-262.852 -145.181)" fill="#2a386b"/>
  <path id="Caminho_208" data-name="Caminho 208" d="M241,436.33h11.928v24.122H241Z" transform="translate(-145.181 -262.85)" fill="#3c4a83"/>
  <path id="Caminho_209" data-name="Caminho 209" d="M256,436.33h5.964v24.122H256Z" transform="translate(-154.217 -262.85)" fill="#2a386b"/>
  <path id="Caminho_210" data-name="Caminho 210" d="M241,15h11.928V39.122H241Z" transform="translate(-145.181 -9.036)" fill="#3c4a83"/>
  <path id="Caminho_211" data-name="Caminho 211" d="M256,15h5.964V39.122H256Z" transform="translate(-154.217 -9.036)" fill="#2a386b"/>
  <circle id="Elipse_10" data-name="Elipse 10" cx="77.661" cy="77.661" r="77.661" transform="translate(24.122 24.122)" fill="#48588b"/>
  <path id="Caminho_212" data-name="Caminho 212" d="M333.661,138.331A77.657,77.657,0,0,1,256,215.992V60.67A77.657,77.657,0,0,1,333.661,138.331Z" transform="translate(-154.217 -36.548)" fill="#3c4a83"/>
  <path id="Caminho_213" data-name="Caminho 213" d="M244.534,159v11.482H232.606V159a10.329,10.329,0,0,0-20.659,0v11.482H200.02V159a22.257,22.257,0,0,1,44.514,0Z" transform="translate(-120.494 -82.38)" fill="#cddbf9"/>
  <path id="Caminho_214" data-name="Caminho 214" d="M278.257,159v11.482H266.329V159A10.34,10.34,0,0,0,256,148.678V136.75A22.28,22.28,0,0,1,278.257,159Z" transform="translate(-154.217 -82.38)" fill="#afc2e8"/>
  <path id="Caminho_215" data-name="Caminho 215" d="M176.09,206.6v58.636H201.9l5.964-2.461,5.964,2.461h25.807V206.6Z" transform="translate(-106.079 -124.458)" fill="#fea000"/>
  <path id="Caminho_216" data-name="Caminho 216" d="M287.771,206.6v58.636H261.964L256,262.775V206.6Z" transform="translate(-154.217 -124.458)" fill="#f78002"/>
  <path id="Caminho_217" data-name="Caminho 217" d="M241,264.13h11.928v35.763H241Z" transform="translate(-145.181 -159.115)" fill="#fbe200"/>
  <path id="Caminho_218" data-name="Caminho 218" d="M256,264.13h5.964v35.763H256Z" transform="translate(-154.217 -159.115)" fill="#febf01"/>
</svg>
