<?xml version="1.0"?>
<svg xmlns="http://www.w3.org/2000/svg" xmlns:xlink="http://www.w3.org/1999/xlink" xmlns:svgjs="http://svgjs.com/svgjs" version="1.1" width="512" height="512" x="0" y="0" viewBox="0 0 64 64" style="enable-background:new 0 0 512 512" xml:space="preserve" class=""><g><path xmlns="http://www.w3.org/2000/svg" d="m60 28h-38a3 3 0 0 0 -3 3v26a3 3 0 0 0 3 3h38a3 3 0 0 0 3-3v-26a3 3 0 0 0 -3-3zm-13.985 17.8-9.015 5.2a2 2 0 0 1 -3-1.732v-10.517a2 2 0 0 1 3.017-1.723l9.015 5.319a2 2 0 0 1 -.017 3.453z" fill="#c7ffd8" data-original="#c4a2fc" style="" class=""/><path xmlns="http://www.w3.org/2000/svg" d="m48 4h-44a3 3 0 0 0 -3 3v38a3 3 0 0 0 3 3h44a3 3 0 0 0 3-3v-38a3 3 0 0 0 -3-3zm-44 2h44a1 1 0 0 1 1 1v3h-46v-3a1 1 0 0 1 1-1zm7.7 24.5a3.5 3.5 0 1 1 3.5 3.5 3.5 3.5 0 0 1 -3.5-3.5zm9.7 15.5h-12.4v-3.8a6.2 6.2 0 0 1 12.4 0zm26.6 0h-24.6v-3.8a8.2 8.2 0 0 0 -4.745-7.426 5.5 5.5 0 1 0 -6.909 0 8.2 8.2 0 0 0 -4.746 7.426v3.8h-3a1 1 0 0 1 -1-1v-33h46v33a1 1 0 0 1 -1 1zm-4-21a1 1 0 0 1 -1 1h-15a1 1 0 0 1 0-2h15a1 1 0 0 1 1 1zm0-5a1 1 0 0 1 -1 1h-15a1 1 0 0 1 0-2h15a1 1 0 0 1 1 1zm0 10a1 1 0 0 1 -1 1h-15a1 1 0 0 1 0-2h15a1 1 0 0 1 1 1zm-10 5a1 1 0 0 1 -1 1h-5a1 1 0 0 1 0-2h5a1 1 0 0 1 1 1zm10 0a1 1 0 0 1 -1 1h-5a1 1 0 0 1 0-2h5a1 1 0 0 1 1 1z" fill="#151a6a" data-original="#151a6a" style="" class=""/></g></svg>
